<?xml version="1.0" encoding="UTF-8" ?>
<!DOCTYPE svg PUBLIC "-//W3C//DTD SVG 1.1//EN" "http://www.w3.org/Graphics/SVG/1.1/DTD/svg11.dtd">
<svg width="595pt" height="595pt" viewBox="0 0 595 595" version="1.1" xmlns="http://www.w3.org/2000/svg">
<g id="#f8cf35ff">
<path fill="#f8cf35" opacity="1.00" d=" M 322.24 166.86 C 331.38 152.13 339.46 136.72 349.26 122.39 C 352.69 149.70 356.32 176.99 359.72 204.30 C 347.48 191.57 334.71 179.36 322.24 166.86 Z" />
</g>
<g id="#f8c935ff">
<path fill="#f8c935" opacity="1.00" d=" M 322.24 166.86 C 334.71 179.36 347.48 191.57 359.72 204.30 C 361.55 212.49 361.99 221.06 362.72 229.44 C 347.09 212.30 331.04 195.54 315.14 178.66 C 317.61 174.80 319.93 170.83 322.24 166.86 Z" />
</g>
<g id="#4d72fefe">
<path fill="#4d72fe" opacity="1.00" d=" M 130.32 178.18 C 129.18 180.13 128.00 182.06 126.85 184.00 L 126.16 183.65 C 125.68 183.40 124.73 182.91 124.25 182.67 L 123.63 182.35 C 125.30 181.31 128.64 179.22 130.32 178.18 Z" />
</g>
<g id="#f8c235ff">
<path fill="#f8c235" opacity="1.00" d=" M 315.14 178.66 C 331.04 195.54 347.09 212.30 362.72 229.44 C 364.45 236.39 364.65 243.66 366.00 250.71 C 370.26 251.68 375.01 251.67 378.78 254.04 C 394.73 272.96 410.85 291.76 427.07 310.46 C 424.59 311.68 422.13 312.93 419.68 314.21 C 382.72 272.66 346.00 230.89 308.87 189.50 C 310.97 185.90 313.13 182.32 315.14 178.66 Z" />
</g>
<g id="#4c6abcff">
<path fill="#4c6abc" opacity="1.00" d=" M 122.91 183.82 C 123.24 183.53 123.92 182.96 124.25 182.67 C 124.73 182.91 125.68 183.40 126.16 183.65 C 125.91 183.98 125.40 184.64 125.14 184.97 C 121.28 189.61 117.98 194.67 115.50 200.18 L 115.29 200.58 C 112.88 205.07 110.54 209.61 108.48 214.28 L 108.11 215.03 C 107.46 216.19 106.84 217.49 107.13 218.87 L 107.25 220.43 C 106.22 219.04 104.94 220.71 105.34 221.89 L 105.27 222.61 C 103.39 228.10 101.20 233.50 99.87 239.16 C 99.55 240.36 99.20 241.55 98.82 242.74 C 97.87 245.55 97.05 248.41 96.41 251.32 C 96.22 252.14 96.02 252.97 95.82 253.81 C 95.11 256.67 94.46 259.54 93.84 262.43 C 93.78 262.74 93.65 263.36 93.58 263.67 C 92.80 267.24 92.12 270.85 91.32 274.42 L 91.16 275.00 C 90.52 276.36 90.18 277.83 90.30 279.34 L 90.22 280.19 C 89.85 282.04 89.53 283.91 89.50 285.81 L 89.46 286.48 C 89.13 290.73 88.80 294.99 88.56 299.26 C 88.54 299.62 88.50 300.34 88.47 300.70 C 88.25 303.89 88.11 307.06 87.99 310.27 C 87.89 311.88 87.81 313.51 87.45 315.10 C 86.33 315.79 86.35 317.36 87.67 317.82 C 87.74 321.78 87.75 325.75 87.71 329.73 C 87.76 332.93 88.17 336.08 88.50 339.28 C 88.54 339.65 88.61 340.40 88.65 340.78 C 88.86 343.22 89.08 345.73 89.30 348.19 L 89.35 348.80 C 89.90 356.13 90.95 363.51 93.45 370.47 C 93.89 371.79 94.30 373.13 94.68 374.48 C 95.50 377.49 96.55 380.43 97.86 383.26 C 99.00 385.77 100.06 388.32 101.07 390.89 C 102.85 395.23 104.64 399.60 107.22 403.54 L 107.43 403.87 C 108.89 406.23 110.56 408.47 112.31 410.64 L 112.57 410.95 C 115.22 414.14 117.76 417.50 120.93 420.23 C 121.76 420.96 122.62 421.68 123.48 422.41 C 127.44 425.67 131.60 428.72 135.91 431.54 L 136.40 431.90 C 137.45 432.92 138.82 433.47 140.27 433.58 L 140.65 433.67 C 142.86 434.35 145.04 435.14 147.21 435.98 L 147.87 436.35 C 148.72 437.41 150.09 437.83 151.38 437.35 L 151.83 437.34 C 154.41 437.85 156.94 438.46 159.50 439.14 L 160.42 439.43 C 161.71 439.91 163.06 440.28 164.46 440.21 C 171.87 440.41 179.29 440.61 186.71 440.34 C 189.54 440.21 192.33 439.79 195.15 439.47 L 195.76 439.39 C 199.28 438.81 202.77 438.02 206.25 437.21 C 207.08 437.01 207.91 436.82 208.75 436.65 C 211.63 436.07 214.47 435.33 217.25 434.38 C 219.40 433.71 221.51 432.72 223.79 432.62 C 225.09 433.07 226.44 432.63 227.26 431.53 L 227.91 431.20 C 230.04 430.32 232.20 429.51 234.35 428.68 L 234.81 428.51 C 237.39 427.61 239.95 426.64 242.54 425.74 L 242.92 425.63 C 244.50 425.30 245.99 424.68 247.30 423.73 L 247.68 423.51 C 250.94 421.87 254.22 420.23 257.56 418.76 L 258.00 418.60 C 259.52 418.19 261.16 417.72 262.04 416.28 C 262.38 415.87 263.05 415.05 263.39 414.64 L 263.82 415.15 C 264.62 416.71 266.29 415.55 266.96 414.54 C 268.05 413.39 269.36 412.47 270.76 411.75 C 272.95 410.63 275.17 409.54 277.40 408.49 L 278.03 408.23 C 279.47 407.68 280.93 407.18 282.39 406.69 C 281.57 407.88 280.75 409.07 279.89 410.24 C 279.68 410.46 279.25 410.90 279.03 411.12 C 276.00 413.45 272.99 415.81 269.89 418.06 C 269.59 418.24 269.01 418.60 268.71 418.78 C 267.66 419.22 266.74 419.92 265.99 420.78 C 265.74 420.99 265.23 421.41 264.98 421.62 C 257.19 426.52 249.62 431.75 242.28 437.29 L 241.97 437.49 C 240.45 438.30 238.98 439.20 237.58 440.22 L 236.94 440.58 C 235.95 440.79 235.17 441.32 234.61 442.17 L 234.25 442.45 C 232.05 443.90 229.80 445.28 227.55 446.65 C 226.62 447.17 225.68 447.64 224.70 448.06 C 223.33 448.60 222.04 449.33 220.80 450.12 L 220.34 450.36 C 211.48 454.47 202.47 458.26 193.63 462.41 L 193.24 462.57 C 190.71 463.56 188.18 464.52 185.63 465.44 L 185.08 465.60 C 175.60 467.54 166.10 469.44 156.62 471.43 C 154.94 471.67 153.24 471.60 151.56 471.53 C 149.83 471.27 148.11 471.24 146.41 471.45 C 144.57 471.61 142.72 471.78 140.88 471.64 C 140.30 470.42 138.68 470.40 138.19 471.71 L 137.45 471.62 C 132.88 470.79 128.33 469.86 123.78 468.93 L 123.10 468.67 C 122.29 467.57 120.93 467.13 119.65 467.60 L 119.25 467.54 C 116.11 466.44 113.01 465.25 109.91 464.07 L 109.26 463.77 C 94.31 454.76 80.86 443.09 71.53 428.22 L 71.19 427.60 C 70.56 426.16 69.70 424.84 68.67 423.66 C 68.07 422.98 67.67 422.21 67.45 421.35 C 67.39 419.88 66.90 418.50 66.04 417.32 L 65.87 416.94 C 65.40 415.39 64.71 413.92 63.73 412.63 C 63.20 411.81 62.80 410.94 62.52 410.02 C 62.08 408.28 61.49 406.58 60.61 405.02 C 60.03 403.87 59.55 402.68 59.16 401.46 C 58.10 397.95 57.15 394.40 56.17 390.89 L 55.98 390.09 C 55.45 387.66 54.97 385.23 54.48 382.79 L 54.38 382.22 C 53.78 378.66 53.18 375.12 52.57 371.58 C 52.40 370.51 52.28 369.44 52.19 368.37 C 51.92 364.50 51.66 360.64 51.39 356.79 L 51.35 356.20 C 51.15 350.68 50.85 345.17 50.85 339.66 C 50.96 338.92 51.18 337.45 51.29 336.72 C 51.36 335.61 51.51 333.38 51.58 332.27 L 51.62 331.55 C 51.91 327.83 52.17 324.14 52.63 320.45 L 52.75 319.79 C 53.21 318.20 53.51 316.56 53.49 314.90 C 53.54 314.39 53.65 313.37 53.70 312.86 C 54.01 311.72 54.16 310.54 54.05 309.37 C 54.11 308.62 54.24 307.10 54.30 306.35 C 55.26 302.04 56.15 297.74 57.29 293.49 L 57.50 292.94 C 58.10 292.12 58.35 291.22 58.25 290.22 L 58.39 289.49 C 60.22 283.66 61.87 277.77 63.71 271.94 L 63.87 271.52 C 66.45 266.19 68.55 260.65 70.32 255.01 L 70.58 254.36 C 71.43 252.40 72.33 250.46 73.26 248.55 C 73.66 247.74 74.13 246.98 74.66 246.27 C 75.45 245.41 76.02 244.39 76.37 243.29 L 76.71 242.66 C 77.73 241.58 78.33 240.22 78.52 238.76 L 78.65 238.39 C 80.38 235.21 82.18 232.08 84.04 228.98 L 84.42 228.37 C 85.63 226.59 86.84 224.81 88.02 223.01 L 88.42 222.41 C 89.76 220.52 91.06 218.61 92.41 216.74 L 92.67 216.40 C 99.33 208.72 106.40 201.37 112.51 193.24 C 113.80 191.63 115.33 190.24 116.89 188.91 C 118.90 187.22 120.91 185.52 122.91 183.82 Z" />
</g>
<g id="#4c74f8ff">
<path fill="#4c74f8" opacity="1.00" d=" M 116.89 188.91 C 118.88 187.19 120.88 185.49 122.91 183.82 C 120.91 185.52 118.90 187.22 116.89 188.91 Z" />
<path fill="#4c74f8" opacity="1.00" d=" M 227.55 446.65 C 229.80 445.28 232.05 443.90 234.25 442.45 C 232.16 444.06 229.92 445.47 227.55 446.65 Z" />
</g>
<g id="#496ef4ff">
<path fill="#496ef4" opacity="1.00" d=" M 115.50 200.18 C 117.98 194.67 121.28 189.61 125.14 184.97 C 122.33 190.28 119.37 195.56 115.50 200.18 Z" />
</g>
<g id="#f8be35ff">
<path fill="#f8be35" opacity="1.00" d=" M 303.99 197.50 C 305.62 194.83 307.25 192.17 308.87 189.50 C 346.00 230.89 382.72 272.66 419.68 314.21 L 420.05 314.63 C 418.05 315.33 416.07 316.08 414.08 316.81 C 377.58 276.87 340.70 237.26 303.99 197.50 Z" />
</g>
<g id="#4d70ecff">
<path fill="#4d70ec" opacity="1.00" d=" M 92.67 216.40 C 97.96 207.69 104.54 199.61 112.51 193.24 C 106.40 201.37 99.33 208.72 92.67 216.40 Z" />
</g>
<g id="#f8ba35ff">
<path fill="#f8ba35" opacity="1.00" d=" M 299.75 204.91 C 301.21 202.47 302.61 199.99 303.99 197.50 C 340.70 237.26 377.58 276.87 414.08 316.81 C 411.13 318.11 408.21 319.44 405.29 320.79 C 389.99 308.33 373.29 297.64 358.83 284.17 C 333.95 262.03 317.97 232.31 299.75 204.91 Z" />
</g>
<g id="#4c73fbff">
<path fill="#4c73fb" opacity="1.00" d=" M 108.48 214.28 C 110.54 209.61 112.88 205.07 115.29 200.58 C 113.63 205.41 111.82 210.32 108.48 214.28 Z" />
</g>
<g id="#f8b735ff">
<path fill="#f8b735" opacity="1.00" d=" M 295.50 211.79 C 296.97 209.53 298.38 207.23 299.75 204.91 C 317.97 232.31 333.95 262.03 358.83 284.17 C 373.29 297.64 389.99 308.33 405.29 320.79 C 402.26 322.30 399.22 323.82 396.21 325.36 C 377.31 312.52 357.33 301.04 340.10 285.91 C 330.89 277.88 323.72 267.74 318.09 256.95 C 310.28 242.04 302.98 226.87 295.50 211.79 Z" />
</g>
<g id="#f8b535fe">
<path fill="#f8b535" opacity="1.00" d=" M 288.72 223.07 C 291.03 219.34 293.20 215.53 295.50 211.79 C 302.98 226.87 310.28 242.04 318.09 256.95 C 323.72 267.74 330.89 277.88 340.10 285.91 C 357.33 301.04 377.31 312.52 396.21 325.36 C 391.56 327.72 386.88 330.03 382.24 332.39 C 362.48 320.07 340.45 310.06 325.24 291.82 C 309.62 270.91 300.46 246.18 288.72 223.07 Z" />
</g>
<g id="#f9ae35ff">
<path fill="#f9ae35" opacity="1.00" d=" M 154.42 214.15 C 168.02 215.26 181.40 218.05 194.86 220.20 C 223.05 225.02 251.33 229.35 279.47 234.49 L 279.68 235.35 C 284.93 254.72 290.93 274.08 300.08 292.00 C 309.63 309.68 326.68 321.28 343.20 331.81 C 354.00 338.72 365.20 345.03 375.79 352.28 C 377.94 355.37 376.37 360.15 377.50 363.66 C 379.72 397.11 383.87 430.41 385.82 463.88 C 380.05 459.82 375.40 454.48 370.63 449.36 C 348.45 426.55 326.57 403.44 304.41 380.61 C 301.82 378.33 300.01 374.84 296.82 373.37 C 291.84 374.03 287.52 376.98 282.95 378.89 C 252.57 392.58 222.02 405.93 191.63 419.60 C 186.85 421.70 182.06 423.82 177.07 425.39 C 197.72 386.90 218.55 348.50 239.29 310.06 C 210.80 278.27 182.33 246.44 154.42 214.15 Z" />
</g>
<g id="#4a75ffff">
<path fill="#4a75ff" opacity="1.00" d=" M 107.13 218.87 C 106.84 217.49 107.46 216.19 108.11 215.03 C 109.69 215.85 109.04 219.21 107.13 218.87 Z" />
</g>
<g id="#4d73f7ff">
<path fill="#4d73f7" opacity="1.00" d=" M 88.42 222.41 C 89.63 220.44 90.96 218.54 92.41 216.74 C 91.06 218.61 89.76 220.52 88.42 222.41 Z" />
</g>
<g id="#4b78ffff">
<path fill="#4b78ff" opacity="1.00" d=" M 105.34 221.89 C 104.94 220.71 106.22 219.04 107.25 220.43 C 106.77 220.80 105.82 221.53 105.34 221.89 Z" />
</g>
<g id="#4b73f6ff">
<path fill="#4b73f6" opacity="1.00" d=" M 84.42 228.37 C 85.51 226.51 86.71 224.72 88.02 223.01 C 86.84 224.81 85.63 226.59 84.42 228.37 Z" />
</g>
<g id="#4d71fbff">
<path fill="#4d71fb" opacity="1.00" d=" M 99.87 239.16 C 101.20 233.50 103.39 228.10 105.27 222.61 C 103.77 228.21 102.49 233.95 99.87 239.16 Z" />
</g>
<g id="#f9b036ff">
<path fill="#f9b036" opacity="1.00" d=" M 279.68 235.35 C 283.85 232.23 286.17 227.47 288.72 223.07 C 300.46 246.18 309.62 270.91 325.24 291.82 C 340.45 310.06 362.48 320.07 382.24 332.39 C 379.92 333.67 377.56 334.88 375.22 336.10 C 375.51 341.49 375.65 346.87 375.79 352.28 C 365.20 345.03 354.00 338.72 343.20 331.81 C 326.68 321.28 309.63 309.68 300.08 292.00 C 290.93 274.08 284.93 254.72 279.68 235.35 Z" />
</g>
<g id="#4b71ebfe">
<path fill="#4b71eb" opacity="1.00" d=" M 78.65 238.39 C 80.33 235.19 82.02 231.98 84.04 228.98 C 82.18 232.08 80.38 235.21 78.65 238.39 Z" />
</g>
<g id="#f8df35ff">
<path fill="#f8df35" opacity="1.00" d=" M 487.94 267.73 C 500.96 258.30 505.53 242.04 515.80 230.32 C 512.33 241.52 505.40 251.16 500.80 261.86 C 499.54 266.02 496.99 272.48 502.42 274.49 C 516.28 279.05 531.36 275.47 545.57 278.19 C 531.52 281.01 516.81 278.52 503.04 283.05 C 500.55 284.11 497.88 286.65 500.17 289.97 C 503.35 303.70 513.33 314.59 518.04 327.73 C 508.55 318.50 504.30 305.33 495.25 295.73 C 493.16 293.69 489.93 293.23 487.43 292.06 C 476.96 303.15 470.94 317.32 462.01 329.48 C 465.95 314.13 473.35 299.93 478.01 284.80 C 482.34 282.27 486.62 279.66 490.97 277.16 C 486.33 276.17 481.70 275.14 477.08 274.14 C 471.89 259.75 464.76 246.10 460.30 231.45 C 469.99 243.20 475.99 257.89 487.94 267.73 Z" />
</g>
<g id="#4d72f1ff">
<path fill="#4d72f1" opacity="1.00" d=" M 76.71 242.66 C 75.34 241.32 76.66 238.64 78.52 238.76 C 78.33 240.22 77.73 241.58 76.71 242.66 Z" />
<path fill="#4d72f1" opacity="1.00" d=" M 90.30 279.34 C 90.18 277.83 90.52 276.36 91.16 275.00 C 92.75 276.06 92.21 278.99 90.30 279.34 Z" />
</g>
<g id="#4c71eeff">
<path fill="#4c71ee" opacity="1.00" d=" M 74.66 246.27 C 73.15 245.25 74.72 242.41 76.37 243.29 C 76.02 244.39 75.45 245.41 74.66 246.27 Z" />
</g>
<g id="#4469f8ff">
<path fill="#4469f8" opacity="1.00" d=" M 96.41 251.32 C 97.05 248.41 97.87 245.55 98.82 242.74 C 98.27 245.66 97.48 248.54 96.41 251.32 Z" />
</g>
<g id="#4b73ffff">
<path fill="#4b73ff" opacity="1.00" d=" M 70.58 254.36 C 71.40 252.39 72.31 250.45 73.26 248.55 C 72.33 250.46 71.43 252.40 70.58 254.36 Z" />
<path fill="#4b73ff" opacity="1.00" d=" M 160.42 439.43 C 161.18 437.73 164.70 438.17 164.46 440.21 C 163.06 440.28 161.71 439.91 160.42 439.43 Z" />
</g>
<g id="#4c72f8ff">
<path fill="#4c72f8" opacity="1.00" d=" M 93.84 262.43 C 94.46 259.54 95.11 256.67 95.82 253.81 C 95.21 256.70 94.52 259.54 93.84 262.43 Z" />
</g>
<g id="#f8c635ff">
<path fill="#f8c635" opacity="1.00" d=" M 378.78 254.04 C 386.09 255.19 393.64 255.81 400.65 258.36 C 414.60 272.98 428.08 288.07 441.44 303.23 C 436.71 305.77 431.96 308.25 427.07 310.46 C 410.85 291.76 394.73 272.96 378.78 254.04 Z" />
</g>
<g id="#4c72f2ff">
<path fill="#4c72f2" opacity="1.00" d=" M 63.87 271.52 C 64.97 265.68 67.02 259.98 70.32 255.01 C 68.55 260.65 66.45 266.19 63.87 271.52 Z" />
</g>
<g id="#f8cd35fe">
<path fill="#f8cd35" opacity="1.00" d=" M 400.65 258.36 C 411.37 259.64 421.75 262.71 432.36 264.66 C 447.23 267.99 462.18 270.91 477.08 274.14 C 481.70 275.14 486.33 276.17 490.97 277.16 C 486.62 279.66 482.34 282.27 478.01 284.80 C 465.96 291.20 453.79 297.41 441.44 303.23 C 428.08 288.07 414.60 272.98 400.65 258.36 Z" />
</g>
<g id="#446af4ff">
<path fill="#446af4" opacity="1.00" d=" M 91.32 274.42 C 92.12 270.85 92.80 267.24 93.58 263.67 C 93.04 267.29 92.21 270.87 91.32 274.42 Z" />
</g>
<g id="#4c72fbff">
<path fill="#4c72fb" opacity="1.00" d=" M 63.71 271.94 C 61.87 277.77 60.22 283.66 58.39 289.49 C 58.74 283.30 61.34 277.57 63.71 271.94 Z" />
</g>
<g id="#4b74f5fe">
<path fill="#4b74f5" opacity="1.00" d=" M 89.50 285.81 C 89.53 283.91 89.85 282.04 90.22 280.19 C 92.16 281.50 91.84 285.13 89.50 285.81 Z" />
</g>
<g id="#4c73f9ff">
<path fill="#4c73f9" opacity="1.00" d=" M 88.56 299.26 C 88.80 294.99 89.13 290.73 89.46 286.48 C 89.23 290.74 88.93 295.00 88.56 299.26 Z" />
<path fill="#4c73f9" opacity="1.00" d=" M 51.39 356.79 C 51.66 360.64 51.92 364.50 52.19 368.37 C 51.79 364.51 51.40 360.66 51.39 356.79 Z" />
</g>
<g id="#4a76ffff">
<path fill="#4a76ff" opacity="1.00" d=" M 57.50 292.94 C 56.25 291.58 56.50 290.67 58.25 290.22 C 58.35 291.22 58.10 292.12 57.50 292.94 Z" />
<path fill="#4a76ff" opacity="1.00" d=" M 53.70 312.86 C 51.97 312.47 52.14 309.20 54.05 309.37 C 54.16 310.54 54.01 311.72 53.70 312.86 Z" />
</g>
<g id="#4c6dfaff">
<path fill="#4c6dfa" opacity="1.00" d=" M 54.30 306.35 C 55.23 302.04 56.05 297.72 57.29 293.49 C 56.15 297.74 55.26 302.04 54.30 306.35 Z" />
</g>
<g id="#4d74f8ff">
<path fill="#4d74f8" opacity="1.00" d=" M 87.99 310.27 C 88.11 307.06 88.25 303.89 88.47 300.70 C 88.49 303.89 88.27 307.08 87.99 310.27 Z" />
</g>
<g id="#4b74f3ff">
<path fill="#4b74f3" opacity="1.00" d=" M 53.49 314.90 C 53.51 316.56 53.21 318.20 52.75 319.79 C 50.89 318.69 51.31 315.32 53.49 314.90 Z" />
</g>
<g id="#4c74ffff">
<path fill="#4c74ff" opacity="1.00" d=" M 87.67 317.82 C 86.35 317.36 86.33 315.79 87.45 315.10 C 87.50 315.78 87.61 317.14 87.67 317.82 Z" />
<path fill="#4c74ff" opacity="1.00" d=" M 51.58 332.27 C 51.51 333.38 51.36 335.61 51.29 336.72 C 49.26 336.09 49.57 332.70 51.58 332.27 Z" />
<path fill="#4c74ff" opacity="1.00" d=" M 138.19 471.71 C 138.68 470.40 140.30 470.42 140.88 471.64 C 140.20 471.66 138.86 471.69 138.19 471.71 Z" />
<path fill="#4c74ff" opacity="1.00" d=" M 146.41 471.45 C 148.11 471.24 149.83 471.27 151.56 471.53 C 150.74 473.59 147.17 473.52 146.41 471.45 Z" />
</g>
<g id="#4b74f8ff">
<path fill="#4b74f8" opacity="1.00" d=" M 52.63 320.45 C 52.17 324.14 51.91 327.83 51.62 331.55 C 51.78 327.82 51.92 324.11 52.63 320.45 Z" />
</g>
<g id="#4b6ef8ff">
<path fill="#4b6ef8" opacity="1.00" d=" M 88.50 339.28 C 88.17 336.08 87.76 332.93 87.71 329.73 C 88.01 332.91 88.25 336.07 88.50 339.28 Z" />
</g>
<g id="#4d74f9ff">
<path fill="#4d74f9" opacity="1.00" d=" M 51.35 356.20 C 50.58 350.73 49.69 345.12 50.85 339.66 C 50.85 345.17 51.15 350.68 51.35 356.20 Z" />
</g>
<g id="#4d71f6ff">
<path fill="#4d71f6" opacity="1.00" d=" M 89.30 348.19 C 89.08 345.73 88.86 343.22 88.65 340.78 C 88.93 343.24 89.17 345.71 89.30 348.19 Z" />
</g>
<g id="#4f74f7ff">
<path fill="#4f74f7" opacity="1.00" d=" M 93.45 370.47 C 90.95 363.51 89.90 356.13 89.35 348.80 C 91.08 355.94 92.68 363.15 93.45 370.47 Z" />
</g>
<g id="#4569f4ff">
<path fill="#4569f4" opacity="1.00" d=" M 52.57 371.58 C 53.18 375.12 53.78 378.66 54.38 382.22 C 53.66 378.68 52.93 375.16 52.57 371.58 Z" />
</g>
<g id="#4b72f2ff">
<path fill="#4b72f2" opacity="1.00" d=" M 97.86 383.26 C 96.55 380.43 95.50 377.49 94.68 374.48 C 95.98 377.31 97.04 380.25 97.86 383.26 Z" />
</g>
<g id="#4b72f6ff">
<path fill="#4b72f6" opacity="1.00" d=" M 54.48 382.79 C 54.97 385.23 55.45 387.66 55.98 390.09 C 55.36 387.68 54.84 385.25 54.48 382.79 Z" />
<path fill="#4b72f6" opacity="1.00" d=" M 140.65 433.67 C 142.87 434.31 145.07 435.08 147.21 435.98 C 145.04 435.14 142.86 434.35 140.65 433.67 Z" />
</g>
<g id="#4c72f4ff">
<path fill="#4c72f4" opacity="1.00" d=" M 56.17 390.89 C 57.15 394.40 58.10 397.95 59.16 401.46 C 58.10 397.95 57.14 394.41 56.17 390.89 Z" />
</g>
<g id="#4e74f2ff">
<path fill="#4e74f2" opacity="1.00" d=" M 101.07 390.89 C 103.39 394.96 105.90 399.00 107.22 403.54 C 104.64 399.60 102.85 395.23 101.07 390.89 Z" />
</g>
<g id="#4c73feff">
<path fill="#4c73fe" opacity="1.00" d=" M 278.03 408.23 C 282.28 405.08 286.74 402.15 291.64 400.12 C 288.06 403.85 284.37 407.59 279.89 410.24 C 280.75 409.07 281.57 407.88 282.39 406.69 C 280.93 407.18 279.47 407.68 278.03 408.23 Z" />
</g>
<g id="#5074f7ff">
<path fill="#5074f7" opacity="1.00" d=" M 112.31 410.64 C 110.56 408.47 108.89 406.23 107.43 403.87 C 109.32 405.92 111.03 408.15 112.31 410.64 Z" />
</g>
<g id="#4c70fefe">
<path fill="#4c70fe" opacity="1.00" d=" M 60.61 405.02 C 61.49 406.58 62.08 408.28 62.52 410.02 C 60.21 410.00 58.78 406.54 60.61 405.02 Z" />
</g>
<g id="#4c76ffff">
<path fill="#4c76ff" opacity="1.00" d=" M 270.76 411.75 C 272.89 410.51 275.12 409.43 277.40 408.49 C 275.17 409.54 272.95 410.63 270.76 411.75 Z" />
</g>
<g id="#4b71efff">
<path fill="#4b71ef" opacity="1.00" d=" M 120.93 420.23 C 117.76 417.50 115.22 414.14 112.57 410.95 C 115.40 413.98 118.32 416.98 120.93 420.23 Z" />
</g>
<g id="#4b72f1ff">
<path fill="#4b72f1" opacity="1.00" d=" M 269.89 418.06 C 272.99 415.81 276.00 413.45 279.03 411.12 C 276.02 413.48 273.11 415.98 269.89 418.06 Z" />
</g>
<g id="#4b70e8ff">
<path fill="#4b70e8" opacity="1.00" d=" M 63.73 412.63 C 64.71 413.92 65.40 415.39 65.87 416.94 C 63.76 417.15 62.10 414.14 63.73 412.63 Z" />
</g>
<g id="#4c72eeff">
<path fill="#4c72ee" opacity="1.00" d=" M 263.82 415.15 C 264.63 413.82 265.67 413.61 266.96 414.54 C 266.29 415.55 264.62 416.71 263.82 415.15 Z" />
</g>
<g id="#4e6bffff">
<path fill="#4e6bff" opacity="1.00" d=" M 258.00 418.60 C 257.84 416.69 260.50 414.90 262.04 416.28 C 261.16 417.72 259.52 418.19 258.00 418.60 Z" />
</g>
<g id="#4378ffff">
<path fill="#4378ff" opacity="1.00" d=" M 66.04 417.32 C 66.90 418.50 67.39 419.88 67.45 421.35 C 65.54 421.35 64.53 418.50 66.04 417.32 Z" />
</g>
<g id="#4b74fefe">
<path fill="#4b74fe" opacity="1.00" d=" M 247.68 423.51 C 250.89 421.75 254.17 420.13 257.56 418.76 C 254.22 420.23 250.94 421.87 247.68 423.51 Z" />
</g>
<g id="#4a74ffff">
<path fill="#4a74ff" opacity="1.00" d=" M 265.99 420.78 C 266.74 419.92 267.66 419.22 268.71 418.78 C 269.80 420.30 267.15 422.21 265.99 420.78 Z" />
</g>
<g id="#4e72edff">
<path fill="#4e72ed" opacity="1.00" d=" M 123.48 422.41 C 127.85 425.09 132.28 427.85 135.91 431.54 C 131.60 428.72 127.44 425.67 123.48 422.41 Z" />
</g>
<g id="#486ff6ff">
<path fill="#486ff6" opacity="1.00" d=" M 242.28 437.29 C 249.62 431.75 257.19 426.52 264.98 421.62 C 258.41 428.04 250.93 433.98 242.28 437.29 Z" />
</g>
<g id="#4d72f3ff">
<path fill="#4d72f3" opacity="1.00" d=" M 242.92 425.63 C 242.79 423.52 245.89 422.08 247.30 423.73 C 245.99 424.68 244.50 425.30 242.92 425.63 Z" />
</g>
<g id="#4261f5fe">
<path fill="#4261f5" opacity="1.00" d=" M 68.67 423.66 C 69.70 424.84 70.56 426.16 71.19 427.60 C 69.07 428.88 66.84 425.15 68.67 423.66 Z" />
</g>
<g id="#4c6ef1ff">
<path fill="#4c6ef1" opacity="1.00" d=" M 234.81 428.51 C 237.27 427.31 239.87 426.38 242.54 425.74 C 239.95 426.64 237.39 427.61 234.81 428.51 Z" />
</g>
<g id="#4d72f6ff">
<path fill="#4d72f6" opacity="1.00" d=" M 227.91 431.20 C 230.01 430.26 232.16 429.42 234.35 428.68 C 232.20 429.51 230.04 430.32 227.91 431.20 Z" />
</g>
<g id="#4a6defff">
<path fill="#4a6def" opacity="1.00" d=" M 71.53 428.22 C 80.86 443.09 94.31 454.76 109.26 463.77 C 100.25 460.71 92.73 454.52 85.87 448.11 C 80.26 442.21 74.15 436.13 71.53 428.22 Z" />
</g>
<g id="#4d74ffff">
<path fill="#4d74ff" opacity="1.00" d=" M 136.40 431.90 C 137.67 430.48 140.37 431.72 140.27 433.58 C 138.82 433.47 137.45 432.92 136.40 431.90 Z" />
<path fill="#4d74ff" opacity="1.00" d=" M 119.65 467.60 C 120.93 467.13 122.29 467.57 123.10 468.67 C 121.55 469.61 120.39 469.25 119.65 467.60 Z" />
</g>
<g id="#4b72eeff">
<path fill="#4b72ee" opacity="1.00" d=" M 223.79 432.62 C 224.54 430.96 225.70 430.59 227.26 431.53 C 226.44 432.63 225.09 433.07 223.79 432.62 Z" />
</g>
<g id="#4d71f1ff">
<path fill="#4d71f1" opacity="1.00" d=" M 208.75 436.65 C 211.53 435.72 214.37 434.96 217.25 434.38 C 214.47 435.33 211.63 436.07 208.75 436.65 Z" />
</g>
<g id="#4b6affff">
<path fill="#4b6aff" opacity="1.00" d=" M 147.87 436.35 C 149.41 435.37 150.58 435.71 151.38 437.35 C 150.09 437.83 148.72 437.41 147.87 436.35 Z" />
</g>
<g id="#4c73f6ff">
<path fill="#4c73f6" opacity="1.00" d=" M 151.83 437.34 C 154.41 437.85 156.97 438.45 159.50 439.14 C 156.94 438.46 154.41 437.85 151.83 437.34 Z" />
</g>
<g id="#4b73f9ff">
<path fill="#4b73f9" opacity="1.00" d=" M 195.76 439.39 C 199.22 438.52 202.70 437.68 206.25 437.21 C 202.77 438.02 199.28 438.81 195.76 439.39 Z" />
</g>
<g id="#4b6ffefe">
<path fill="#4b6ffe" opacity="1.00" d=" M 237.58 440.22 C 238.98 439.20 240.45 438.30 241.97 437.49 C 242.57 439.80 239.34 442.00 237.58 440.22 Z" />
</g>
<g id="#4975ffff">
<path fill="#4975ff" opacity="1.00" d=" M 186.71 440.34 C 189.52 440.01 192.32 439.71 195.15 439.47 C 192.33 439.79 189.54 440.21 186.71 440.34 Z" />
</g>
<g id="#4b76ffff">
<path fill="#4b76ff" opacity="1.00" d=" M 234.61 442.17 C 235.17 441.32 235.95 440.79 236.94 440.58 C 237.05 442.38 236.27 442.91 234.61 442.17 Z" />
</g>
<g id="#4d6fffff">
<path fill="#4d6fff" opacity="1.00" d=" M 220.80 450.12 C 222.04 449.33 223.33 448.60 224.70 448.06 C 225.73 450.16 222.08 451.90 220.80 450.12 Z" />
</g>
<g id="#4a6ef2ff">
<path fill="#4a6ef2" opacity="1.00" d=" M 193.63 462.41 C 202.47 458.26 211.48 454.47 220.34 450.36 C 212.19 455.74 203.30 460.52 193.63 462.41 Z" />
</g>
<g id="#4873f8ff">
<path fill="#4873f8" opacity="1.00" d=" M 185.63 465.44 C 188.18 464.52 190.71 463.56 193.24 462.57 C 190.79 463.74 188.23 464.68 185.63 465.44 Z" />
</g>
<g id="#4a74f9ff">
<path fill="#4a74f9" opacity="1.00" d=" M 109.91 464.07 C 113.01 465.25 116.11 466.44 119.25 467.54 C 115.94 466.99 112.78 465.80 109.91 464.07 Z" />
</g>
<g id="#4b70f9ff">
<path fill="#4b70f9" opacity="1.00" d=" M 156.62 471.43 C 166.10 469.44 175.60 467.54 185.08 465.60 C 175.95 468.92 166.35 471.12 156.62 471.43 Z" />
</g>
<g id="#4e74f4ff">
<path fill="#4e74f4" opacity="1.00" d=" M 123.78 468.93 C 128.33 469.86 132.88 470.79 137.45 471.62 C 132.82 471.20 128.13 470.64 123.78 468.93 Z" />
</g>
</svg>
