<?xml version="1.0" encoding="UTF-8" ?>
<!DOCTYPE svg PUBLIC "-//W3C//DTD SVG 1.1//EN" "http://www.w3.org/Graphics/SVG/1.1/DTD/svg11.dtd">
<svg width="1200pt" height="1200pt" viewBox="0 0 1200 1200" version="1.1" xmlns="http://www.w3.org/2000/svg">
<g id="#1793d1ff">
<path fill="#1793d1" opacity="1.00" d=" M 599.35 0.00 L 600.55 0.00 C 601.88 4.04 603.26 8.07 605.04 11.94 C 620.89 49.13 636.74 86.32 652.51 123.55 C 661.00 143.09 668.99 162.84 677.67 182.30 C 690.85 211.76 703.47 241.48 717.06 270.75 C 729.35 297.97 742.19 324.94 755.02 351.91 C 760.07 363.11 766.05 373.88 771.00 385.13 C 786.11 416.13 801.72 446.89 817.13 477.74 C 826.39 496.40 835.64 515.06 845.41 533.46 C 853.73 550.38 862.68 566.98 871.18 583.80 C 893.04 625.33 914.66 666.98 936.50 708.52 C 949.24 733.33 962.61 757.80 975.63 782.47 C 1000.15 828.25 1024.35 874.21 1048.99 919.93 C 1051.48 924.49 1053.90 929.09 1056.06 933.83 C 1049.88 930.84 1044.13 927.06 1038.05 923.89 C 996.42 901.66 951.63 885.98 906.23 873.49 C 901.87 872.15 897.50 870.86 893.02 870.00 C 904.57 877.05 916.77 882.95 928.57 889.56 C 936.36 893.98 943.87 898.86 951.61 903.37 C 963.75 910.31 975.09 918.52 986.82 926.12 C 1024.70 951.68 1059.54 981.34 1095.29 1009.72 C 1100.05 1013.65 1102.21 1019.61 1105.15 1024.86 C 1135.12 1080.18 1165.13 1135.49 1195.02 1190.86 C 1196.49 1193.57 1198.26 1196.10 1200.00 1198.67 L 1200.00 1200.00 L 1198.70 1200.00 C 1192.64 1195.19 1185.52 1192.08 1178.94 1188.09 C 1171.79 1183.81 1164.36 1180.03 1157.19 1175.81 C 1148.57 1170.69 1139.67 1166.08 1131.03 1161.02 C 1096.10 1142.52 1061.59 1123.22 1026.05 1105.90 C 1019.62 1102.77 1013.39 1099.24 1006.88 1096.30 C 998.57 1092.58 990.44 1088.46 982.13 1084.75 C 961.67 1074.91 940.73 1066.14 919.92 1057.09 C 900.44 1048.91 880.63 1041.53 860.78 1034.28 C 851.50 1031.12 842.33 1027.63 832.92 1024.87 C 819.47 1020.39 806.01 1015.91 792.23 1012.55 C 772.08 1006.41 751.43 1002.18 730.87 997.73 C 731.65 991.43 733.35 985.30 734.13 979.01 C 735.43 969.05 736.74 959.09 737.55 949.08 C 738.74 927.32 738.76 905.40 736.10 883.74 C 733.03 856.81 726.89 830.18 717.19 804.84 C 713.77 796.43 710.44 787.95 706.04 779.99 C 695.44 759.95 682.29 740.90 665.00 726.04 C 647.73 710.65 625.44 700.07 602.04 699.77 C 588.34 699.14 574.87 702.96 562.49 708.54 C 535.78 721.93 515.55 745.43 501.17 771.18 C 494.91 783.33 488.67 795.55 484.42 808.58 C 476.79 830.05 471.42 852.34 468.97 875.00 C 467.10 885.87 467.04 896.92 466.47 907.91 C 465.91 920.64 466.33 933.40 467.26 946.11 C 467.76 955.67 469.55 965.10 470.68 974.61 C 471.53 982.03 473.90 989.17 474.82 996.59 C 463.61 999.62 452.05 1001.08 440.82 1004.02 C 429.85 1006.93 418.76 1009.39 407.88 1012.64 C 393.83 1016.13 380.08 1020.67 366.33 1025.17 C 354.67 1029.24 342.81 1032.76 331.31 1037.32 C 299.08 1048.88 267.50 1062.21 236.30 1076.31 C 217.65 1084.42 199.56 1093.73 181.09 1102.23 C 171.19 1107.40 161.09 1112.18 151.17 1117.32 C 144.75 1120.95 138.10 1124.13 131.54 1127.49 C 111.15 1138.49 90.71 1149.40 70.28 1160.33 C 49.76 1171.75 29.43 1183.51 8.94 1194.99 C 6.57 1196.28 4.08 1197.35 1.58 1198.36 C 3.80 1192.35 7.32 1186.98 10.34 1181.38 C 19.66 1164.39 29.16 1147.49 38.49 1130.51 C 58.28 1094.64 78.45 1058.97 97.98 1022.96 C 115.50 991.41 132.77 959.73 150.18 928.13 C 167.38 897.23 183.92 865.96 200.99 834.99 C 216.09 807.31 231.20 779.64 245.92 751.76 C 272.41 703.11 298.17 654.07 324.02 605.09 C 336.63 580.92 349.21 556.73 361.62 532.46 C 370.74 515.41 379.30 498.07 387.87 480.73 C 398.60 459.16 409.62 437.74 420.13 416.06 C 426.27 404.43 430.88 392.01 437.78 380.78 C 444.28 385.35 450.06 390.87 456.58 395.42 C 463.46 400.19 469.94 405.54 477.10 409.90 C 483.48 413.79 489.50 418.24 495.96 421.99 C 502.93 426.02 509.70 430.41 516.82 434.18 C 524.66 438.27 532.11 443.08 540.16 446.78 C 556.35 454.87 572.71 462.68 589.38 469.76 C 595.63 472.34 601.65 475.47 607.99 477.86 C 605.52 475.69 602.96 473.63 600.25 471.78 C 590.17 464.97 580.46 457.64 570.86 450.17 C 542.36 428.26 515.22 404.60 489.60 379.38 C 479.44 369.54 469.92 359.06 459.87 349.12 C 458.23 347.41 456.68 345.63 455.13 343.85 C 457.65 337.00 461.04 330.53 464.00 323.86 C 489.77 268.53 513.75 212.38 536.83 155.87 C 540.96 144.56 546.06 133.65 550.43 122.43 C 554.69 111.38 559.55 100.58 563.68 89.48 C 570.59 72.11 578.15 55.01 584.72 37.50 C 589.46 24.95 595.71 12.95 599.35 0.00 Z" />
</g>
</svg>
