<?xml version="1.0" encoding="UTF-8" ?>
<!DOCTYPE svg PUBLIC "-//W3C//DTD SVG 1.1//EN" "http://www.w3.org/Graphics/SVG/1.1/DTD/svg11.dtd">
<svg width="512pt" height="636pt" viewBox="0 0 512 636" version="1.1" xmlns="http://www.w3.org/2000/svg">
<g id="#d70751ff">
<path fill="#d70751" opacity="1.00" d=" M 221.31 15.16 C 230.68 14.39 239.75 11.75 249.04 10.44 C 246.00 11.94 243.04 13.58 240.14 15.32 C 240.19 15.89 240.30 17.04 240.35 17.62 C 248.90 15.70 257.40 17.61 265.96 18.13 C 263.72 18.97 261.65 20.23 260.12 22.10 C 276.00 25.16 291.82 16.24 307.41 22.25 C 307.35 20.53 307.27 18.80 307.18 17.08 C 321.94 22.54 337.50 25.72 351.84 32.31 C 357.42 34.65 362.58 37.88 368.17 40.17 C 373.21 41.56 378.14 39.29 383.02 38.31 C 387.60 37.35 392.11 39.06 396.39 40.53 C 399.90 49.63 409.15 55.16 417.86 58.45 C 417.15 55.77 415.70 53.42 414.02 51.25 C 452.46 75.19 484.46 110.92 500.08 153.77 C 498.92 153.26 497.75 152.77 496.59 152.28 C 497.17 160.86 496.84 169.65 498.85 177.99 C 495.48 168.88 491.29 159.98 485.55 152.11 C 483.33 157.01 478.43 155.68 474.12 155.74 C 470.89 162.30 473.95 171.46 479.05 176.49 C 480.01 175.43 480.96 174.35 481.92 173.28 C 487.35 183.10 486.91 194.84 490.12 205.46 C 488.14 202.37 486.13 199.30 483.61 196.63 C 483.13 197.84 481.93 198.98 482.29 200.40 C 483.82 207.76 486.53 214.95 490.79 221.18 C 490.01 221.89 489.24 222.60 488.47 223.31 C 487.92 230.19 488.28 237.34 491.03 243.76 C 492.71 243.89 494.40 244.02 496.10 244.15 C 492.60 254.04 488.12 263.82 487.81 274.50 C 486.73 271.88 485.64 269.18 483.56 267.17 C 482.99 270.63 482.92 274.14 482.93 277.64 C 481.83 278.09 480.75 278.55 479.67 279.01 C 479.55 286.24 478.79 293.55 476.18 300.34 C 472.03 312.73 463.56 323.49 461.58 336.62 C 460.05 334.34 458.45 332.10 456.82 329.89 C 451.93 335.82 446.64 342.95 447.65 351.08 C 442.16 353.85 438.22 358.68 433.91 362.91 C 413.10 383.82 386.70 399.65 357.71 405.87 C 329.10 412.33 298.96 409.00 271.42 399.53 C 266.96 398.51 264.94 394.02 261.31 391.70 C 242.80 377.46 224.35 362.04 212.57 341.52 C 198.78 318.08 196.60 289.48 200.91 263.11 C 207.95 252.39 209.23 239.02 216.37 228.31 C 218.53 224.30 222.51 221.84 225.35 218.42 C 239.61 191.50 271.31 176.76 301.09 178.32 C 322.38 179.44 342.39 189.79 357.41 204.62 C 323.09 180.10 272.44 185.31 242.59 214.58 C 222.31 233.91 211.92 262.62 214.14 290.45 C 215.24 290.33 216.34 290.20 217.45 290.08 C 218.33 337.50 255.92 379.87 301.33 390.81 C 318.73 394.82 337.32 393.79 353.94 387.08 C 365.70 387.20 375.88 379.77 383.97 371.88 C 384.67 372.86 385.38 373.84 386.10 374.82 C 402.11 366.86 414.22 353.09 427.86 341.81 C 434.11 337.12 429.26 328.74 432.69 322.79 C 434.24 317.29 442.33 318.39 443.98 313.04 C 448.27 301.63 454.03 289.99 452.87 277.46 C 452.37 276.87 451.36 275.70 450.86 275.11 C 454.08 255.47 451.49 235.61 452.07 215.85 C 451.40 215.31 450.74 214.78 450.08 214.24 C 447.83 176.40 427.99 141.68 402.41 114.60 C 388.30 99.91 372.13 86.61 353.16 78.76 C 321.75 66.52 286.73 62.48 253.50 68.50 C 253.09 68.01 252.28 67.03 251.87 66.54 C 240.40 67.98 228.44 69.23 218.25 75.16 C 210.18 80.09 202.06 85.23 192.78 87.57 C 190.24 88.36 185.36 89.22 186.71 92.94 C 190.72 93.11 194.59 91.92 198.52 91.38 C 189.82 95.85 179.58 94.02 170.56 97.42 C 162.35 100.50 155.54 106.29 149.35 112.35 C 147.85 113.94 145.73 115.49 146.03 117.96 C 148.49 117.97 150.75 116.94 153.00 116.08 C 152.04 117.15 151.09 118.24 150.15 119.33 C 138.09 119.26 128.08 127.02 118.86 133.86 C 99.15 150.06 81.18 168.71 66.72 189.76 C 64.51 192.75 68.20 193.62 70.50 194.12 C 64.24 210.63 52.95 225.00 48.52 242.18 C 45.98 270.07 41.38 297.90 41.96 325.99 C 42.08 337.18 43.12 348.99 49.27 358.67 C 51.37 364.69 47.65 371.30 49.55 377.43 C 50.97 380.94 52.73 384.30 54.57 387.62 C 53.87 387.86 52.46 388.36 51.76 388.60 C 54.52 397.42 57.09 406.71 62.92 414.07 C 66.92 419.43 75.13 416.50 79.39 421.58 C 85.39 428.42 89.11 436.93 92.42 445.32 C 88.46 443.41 85.48 440.16 82.18 437.36 C 82.41 449.67 91.29 459.65 97.51 469.66 C 96.24 470.95 94.97 472.24 93.71 473.54 C 96.01 477.83 99.10 481.62 102.64 484.94 C 101.59 488.29 102.40 491.77 104.38 494.61 C 111.73 506.44 120.22 517.52 128.77 528.50 C 129.47 527.63 130.16 526.77 130.86 525.91 C 133.16 535.68 139.62 543.65 145.59 551.43 C 147.78 555.08 152.33 552.73 155.72 552.96 C 161.84 561.93 169.90 570.02 180.11 574.16 C 178.49 576.34 176.92 578.55 175.52 580.88 C 188.89 584.06 197.78 596.20 211.54 598.38 C 211.31 596.87 211.07 595.38 210.80 593.90 C 220.74 604.86 231.27 616.74 246.05 620.89 C 259.55 625.55 273.89 626.46 287.71 629.74 C 268.00 630.03 247.79 629.41 228.94 623.07 C 175.60 607.68 129.17 573.50 93.24 531.77 C 43.64 473.86 12.30 398.80 13.00 321.99 C 13.27 317.02 13.79 312.04 13.36 307.06 C 11.64 285.77 15.54 264.35 12.88 243.13 C 11.15 237.96 13.72 232.96 15.13 228.07 C 22.17 204.96 30.44 182.16 41.20 160.50 C 46.76 160.14 50.35 155.32 52.77 150.81 C 57.62 140.34 61.26 129.29 67.12 119.29 C 68.14 118.94 69.16 118.60 70.18 118.25 C 73.42 107.95 80.81 99.76 88.39 92.39 C 99.56 80.82 112.35 70.96 123.47 59.35 C 123.79 60.40 124.42 62.50 124.74 63.55 C 152.19 39.85 186.68 27.29 219.47 13.04 C 220.08 13.74 220.70 14.45 221.31 15.16 Z" />
<path fill="#d70751" opacity="1.00" d=" M 25.28 141.46 C 26.64 141.46 28.01 141.45 29.38 141.45 C 28.32 145.37 26.79 149.30 23.50 151.90 C 24.30 148.46 24.98 144.99 25.28 141.46 Z" />
<path fill="#d70751" opacity="1.00" d=" M 8.32 202.58 C 7.56 198.33 8.72 194.11 10.96 190.49 C 10.54 194.60 9.69 198.67 8.32 202.58 Z" />
<path fill="#d70751" opacity="1.00" d=" M 382.46 256.20 C 383.99 260.51 383.62 265.17 383.13 269.63 C 380.63 265.46 378.85 260.37 382.46 256.20 Z" />
<path fill="#d70751" opacity="1.00" d=" M 361.39 317.70 C 363.33 316.76 365.26 315.78 367.21 314.83 C 366.19 316.43 365.15 318.01 364.13 319.61 C 363.21 318.96 362.30 318.33 361.39 317.70 Z" />
<path fill="#d70751" opacity="1.00" d=" M 305.15 336.73 C 313.70 336.74 322.26 337.42 330.77 336.08 C 328.14 338.00 325.94 340.78 322.85 341.92 C 316.69 341.64 310.56 339.69 305.15 336.73 Z" />
<path fill="#d70751" opacity="1.00" d=" M 194.98 353.15 C 200.23 361.88 205.61 370.55 210.71 379.37 C 204.23 372.78 199.80 364.59 194.17 357.34 C 194.42 355.94 194.70 354.54 194.98 353.15 Z" />
<path fill="#d70751" opacity="1.00" d=" M 210.84 364.08 C 219.42 372.62 226.44 382.66 235.69 390.55 C 238.13 392.54 240.65 395.04 244.03 395.01 C 242.38 389.67 236.66 386.89 233.71 382.27 C 242.95 390.45 252.97 397.88 264.20 403.12 C 265.06 402.76 265.93 402.41 266.80 402.06 C 271.83 407.24 277.76 411.60 284.34 414.60 C 301.98 421.24 321.08 421.75 339.71 421.65 C 329.81 424.71 319.25 424.34 309.07 423.32 C 277.72 418.68 248.26 403.54 225.20 381.96 C 219.83 376.51 214.88 370.59 210.84 364.08 Z" />
</g>
</svg>
