<?xml version="1.0" encoding="UTF-8" ?>
<!DOCTYPE svg PUBLIC "-//W3C//DTD SVG 1.1//EN" "http://www.w3.org/Graphics/SVG/1.1/DTD/svg11.dtd">
<svg width="256pt" height="256pt" viewBox="0 0 256 256" version="1.1" xmlns="http://www.w3.org/2000/svg">
<g id="#000000ff">
<path fill="#000000" opacity="1.00" d=" M 111.84 11.81 C 129.79 5.41 153.96 11.39 161.83 30.13 C 167.52 44.77 160.88 61.27 167.16 75.76 C 170.14 82.65 173.50 89.37 177.00 96.01 C 182.43 106.21 191.85 113.61 197.00 123.99 C 204.38 138.81 211.14 156.29 203.85 172.50 C 202.32 179.27 199.26 186.49 192.41 189.36 C 185.77 192.96 176.39 189.35 174.39 181.94 C 173.89 178.90 173.68 175.81 173.59 172.73 C 173.93 158.99 173.94 144.79 168.74 131.83 C 166.57 124.17 160.14 118.57 158.43 110.73 C 155.95 100.40 150.76 91.05 147.12 81.14 C 152.23 75.80 148.79 68.06 142.01 66.63 C 152.45 60.90 147.81 40.27 135.10 41.64 C 126.63 42.99 125.11 52.96 125.65 60.01 C 122.36 59.11 118.95 58.82 115.57 58.57 C 116.11 51.87 112.54 42.03 104.22 43.70 C 95.61 49.06 98.90 60.96 103.59 67.98 C 100.93 70.33 97.58 72.51 96.56 76.09 C 96.48 80.43 99.94 83.73 102.65 86.73 C 101.68 89.83 100.88 92.98 99.87 96.06 C 97.75 103.28 90.68 107.82 89.15 115.32 C 87.44 122.68 85.84 130.22 81.61 136.64 C 75.41 146.92 72.97 159.02 72.71 170.92 C 67.87 166.87 60.41 166.28 56.03 171.35 C 53.06 166.89 54.43 161.45 57.41 157.42 C 63.87 147.98 68.13 137.28 71.44 126.38 C 75.36 113.40 85.67 104.03 93.25 93.23 C 95.44 90.31 96.15 86.62 95.79 83.03 C 94.73 68.08 92.31 53.13 93.27 38.10 C 94.01 26.84 100.87 15.61 111.84 11.81 Z" />
<path fill="#000000" opacity="1.00" d=" M 101.87 55.19 C 102.25 52.09 106.35 49.87 108.89 52.02 C 111.49 54.19 111.71 57.85 112.46 60.92 C 110.00 62.78 107.59 64.72 105.20 66.66 C 103.25 63.19 100.86 59.34 101.87 55.19 Z" />
<path fill="#000000" opacity="1.00" d=" M 130.43 62.23 C 130.06 57.71 131.67 50.53 137.59 51.45 C 144.11 53.35 143.53 61.41 141.23 66.38 C 137.53 65.27 133.90 63.93 130.43 62.23 Z" />
<path fill="#000000" opacity="1.00" d=" M 80.30 178.72 C 86.14 184.46 93.70 187.89 100.00 193.01 C 105.52 197.45 105.76 207.61 97.95 209.72 C 90.53 200.28 87.18 188.49 80.30 178.72 Z" />
<path fill="#000000" opacity="1.00" d=" M 125.27 221.47 C 138.74 220.12 151.29 213.25 159.92 202.85 C 158.39 213.47 153.94 223.97 155.86 234.85 C 139.86 230.24 123.08 232.78 106.93 234.90 C 108.35 229.91 108.36 224.27 105.27 219.88 C 111.68 222.12 118.57 222.73 125.27 221.47 Z" />
</g>
<g id="#f5f5f5ff">
<path fill="#f5f5f5" opacity="1.00" d=" M 125.65 60.01 C 125.11 52.96 126.63 42.99 135.10 41.64 C 147.81 40.27 152.45 60.90 142.01 66.63 L 141.23 66.38 C 143.53 61.41 144.11 53.35 137.59 51.45 C 131.67 50.53 130.06 57.71 130.43 62.23 C 128.84 61.48 127.27 60.70 125.65 60.01 Z" />
</g>
<g id="#fbfbfbff">
<path fill="#fbfbfb" opacity="1.00" d=" M 103.59 67.98 C 98.90 60.96 95.61 49.06 104.22 43.70 C 112.54 42.03 116.11 51.87 115.57 58.57 C 114.53 59.35 113.49 60.13 112.46 60.92 C 111.71 57.85 111.49 54.19 108.89 52.02 C 106.35 49.87 102.25 52.09 101.87 55.19 C 100.86 59.34 103.25 63.19 105.20 66.66 C 104.79 66.99 103.99 67.65 103.59 67.98 Z" />
</g>
<g id="#f9a201ff">
<path fill="#f9a201" opacity="1.00" d=" M 115.57 58.57 C 118.95 58.82 122.36 59.11 125.65 60.01 C 127.27 60.70 128.84 61.48 130.43 62.23 C 133.90 63.93 137.53 65.27 141.23 66.38 L 142.01 66.63 C 148.79 68.06 152.23 75.80 147.12 81.14 C 139.17 87.09 131.36 95.01 121.00 96.02 C 113.59 96.70 107.50 91.69 102.65 86.73 C 99.94 83.73 96.48 80.43 96.56 76.09 C 97.58 72.51 100.93 70.33 103.59 67.98 C 103.99 67.65 104.79 66.99 105.20 66.66 C 107.59 64.72 110.00 62.78 112.46 60.92 C 113.49 60.13 114.53 59.35 115.57 58.57 Z" />
<path fill="#f9a201" opacity="1.00" d=" M 59.88 170.90 C 64.40 170.59 69.46 170.64 72.80 174.20 C 80.71 182.04 84.97 192.64 89.53 202.59 C 93.29 210.73 101.50 216.00 104.36 224.63 C 107.48 234.15 99.32 244.64 89.70 245.51 C 86.33 245.92 82.94 246.18 79.55 246.38 C 71.76 245.64 65.79 239.50 58.23 237.78 C 47.32 234.55 33.65 235.87 25.75 226.21 C 24.66 221.97 27.90 217.84 28.77 213.71 C 31.27 206.65 23.48 199.89 26.94 192.96 C 28.86 188.84 33.82 188.36 37.82 188.27 C 37.77 188.83 37.67 189.95 37.61 190.50 C 42.21 189.38 46.74 187.96 51.09 186.09 C 54.87 188.73 58.87 191.03 62.94 193.17 C 62.39 185.68 60.32 178.41 59.88 170.90 Z" />
<path fill="#f9a201" opacity="1.00" d=" M 192.41 189.36 C 199.26 186.49 202.32 179.27 203.85 172.50 C 213.65 173.74 209.88 185.46 212.07 192.01 C 217.11 197.99 226.81 198.07 230.94 205.15 C 232.97 210.37 229.48 216.23 225.20 219.20 C 218.15 223.86 209.67 225.47 202.13 229.11 C 195.75 232.15 192.38 238.99 186.13 242.22 C 178.57 246.75 168.20 246.37 161.37 240.65 C 156.73 236.26 157.32 229.13 158.23 223.37 C 160.56 211.74 163.65 199.91 161.85 187.97 C 161.37 183.40 160.92 175.65 167.07 174.95 C 171.56 174.09 173.40 178.43 174.39 181.94 C 176.39 189.35 185.77 192.96 192.41 189.36 Z" />
</g>
<g id="#f8f8f8ff">
<path fill="#f8f8f8" opacity="1.00" d=" M 121.00 96.02 C 131.36 95.01 139.17 87.09 147.12 81.14 C 150.76 91.05 155.95 100.40 158.43 110.73 C 160.14 118.57 166.57 124.17 168.74 131.83 C 168.61 135.23 168.43 138.64 168.49 142.05 C 168.89 152.79 164.07 162.68 161.18 172.78 C 161.57 172.79 162.37 172.80 162.77 172.80 C 159.71 176.96 159.25 182.21 159.69 187.20 C 159.46 186.13 159.21 185.06 158.96 184.00 C 151.32 200.53 137.39 214.88 119.95 220.86 C 121.72 221.08 123.49 221.30 125.27 221.47 C 118.57 222.73 111.68 222.12 105.27 219.88 C 103.01 216.36 100.40 213.10 97.95 209.72 C 105.76 207.61 105.52 197.45 100.00 193.01 C 93.70 187.89 86.14 184.46 80.30 178.72 C 77.84 176.05 75.41 173.34 72.71 170.92 C 72.97 159.02 75.41 146.92 81.61 136.64 C 85.84 130.22 87.44 122.68 89.15 115.32 C 90.68 107.82 97.75 103.28 99.87 96.06 C 100.88 92.98 101.68 89.83 102.65 86.73 C 107.50 91.69 113.59 96.70 121.00 96.02 Z" />
</g>
<g id="#f6f6f6ff">
<path fill="#f6f6f6" opacity="1.00" d=" M 168.49 142.05 C 168.43 138.64 168.61 135.23 168.74 131.83 C 173.94 144.79 173.93 158.99 173.59 172.73 C 169.98 172.83 166.37 172.80 162.77 172.80 C 162.37 172.80 161.57 172.79 161.18 172.78 C 164.07 162.68 168.89 152.79 168.49 142.05 Z" />
</g>
<g id="#ff9f00ff">
<path fill="#ff9f00" opacity="1.00" d=" M 56.03 171.35 C 60.41 166.28 67.87 166.87 72.71 170.92 C 75.41 173.34 77.84 176.05 80.30 178.72 C 87.18 188.49 90.53 200.28 97.95 209.72 C 100.40 213.10 103.01 216.36 105.27 219.88 C 108.36 224.27 108.35 229.91 106.93 234.90 C 102.47 245.07 89.98 250.93 79.55 246.38 C 82.94 246.18 86.33 245.92 89.70 245.51 C 99.32 244.64 107.48 234.15 104.36 224.63 C 101.50 216.00 93.29 210.73 89.53 202.59 C 84.97 192.64 80.71 182.04 72.80 174.20 C 69.46 170.64 64.40 170.59 59.88 170.90 C 60.32 178.41 62.39 185.68 62.94 193.17 C 58.87 191.03 54.87 188.73 51.09 186.09 C 46.74 187.96 42.21 189.38 37.61 190.50 C 37.67 189.95 37.77 188.83 37.82 188.27 C 47.78 188.76 51.19 177.96 56.03 171.35 Z" />
</g>
<g id="#ff9900ff">
<path fill="#ff9900" opacity="1.00" d=" M 162.77 172.80 C 166.37 172.80 169.98 172.83 173.59 172.73 C 173.68 175.81 173.89 178.90 174.39 181.94 C 173.40 178.43 171.56 174.09 167.07 174.95 C 160.92 175.65 161.37 183.40 161.85 187.97 C 163.65 199.91 160.56 211.74 158.23 223.37 C 157.32 229.13 156.73 236.26 161.37 240.65 C 168.20 246.37 178.57 246.75 186.13 242.22 C 192.38 238.99 195.75 232.15 202.13 229.11 C 196.15 235.10 191.37 243.12 182.90 245.84 C 173.02 250.05 157.31 247.53 155.86 234.85 C 153.94 223.97 158.39 213.47 159.92 202.85 C 160.64 197.65 160.39 192.38 159.69 187.20 C 159.25 182.21 159.71 176.96 162.77 172.80 Z" />
</g>
<g id="#fafafaff">
<path fill="#fafafa" opacity="1.00" d=" M 119.95 220.86 C 137.39 214.88 151.32 200.53 158.96 184.00 C 159.21 185.06 159.46 186.13 159.69 187.20 C 160.39 192.38 160.64 197.65 159.92 202.85 C 151.29 213.25 138.74 220.12 125.27 221.47 C 123.49 221.30 121.72 221.08 119.95 220.86 Z" />
</g>
</svg>
