<?xml version="1.0" encoding="UTF-8" ?>
<!DOCTYPE svg PUBLIC "-//W3C//DTD SVG 1.1//EN" "http://www.w3.org/Graphics/SVG/1.1/DTD/svg11.dtd">
<svg width="397pt" height="427pt" viewBox="0 0 397 427" version="1.1" xmlns="http://www.w3.org/2000/svg">
<g id="#10147eff">
<path fill="#10147e" opacity="1.00" d=" M 323.00 0.00 L 334.90 0.00 C 336.51 6.01 336.04 12.54 338.53 18.30 C 340.97 20.60 344.30 21.77 347.54 22.48 C 349.74 23.04 351.68 21.57 353.41 20.42 C 357.21 17.67 360.89 14.74 364.77 12.10 C 367.53 14.83 370.29 17.56 373.04 20.30 C 370.45 24.25 367.53 27.96 364.72 31.75 C 363.64 33.43 362.00 35.31 362.68 37.46 C 363.54 40.90 365.21 44.07 366.62 47.31 C 372.73 48.33 379.07 48.36 384.97 50.41 C 385.71 54.40 385.26 58.48 384.94 62.49 C 378.78 63.06 372.65 63.99 366.50 64.69 C 365.13 67.93 363.53 71.11 362.71 74.55 C 362.04 76.69 363.58 78.59 364.67 80.28 C 367.46 84.12 370.42 87.84 373.07 91.79 C 370.32 94.56 367.56 97.32 364.79 100.06 C 361.05 97.54 357.49 94.78 353.88 92.08 C 351.85 90.61 349.45 88.81 346.81 89.79 C 343.73 90.73 340.20 91.80 338.26 94.53 C 336.08 100.10 336.22 106.25 335.45 112.12 C 331.32 112.19 327.19 112.21 323.07 112.17 C 322.19 106.56 321.97 100.82 320.48 95.32 C 320.14 93.49 318.28 92.73 316.83 91.93 C 314.60 90.87 312.26 89.91 309.80 89.63 C 307.89 89.45 306.34 90.81 304.84 91.77 C 301.03 94.58 297.28 97.48 293.29 100.04 C 290.56 97.29 287.84 94.53 285.12 91.77 C 287.63 88.09 290.38 84.58 293.04 81.02 C 294.33 79.12 296.09 77.02 295.46 74.55 C 294.85 71.54 293.73 68.58 292.00 66.03 C 291.21 64.65 289.53 64.49 288.15 64.15 C 283.11 63.26 277.99 62.99 272.90 62.49 C 272.80 58.36 272.78 54.22 272.83 50.09 C 278.89 49.00 285.29 49.19 291.06 46.89 C 293.46 44.40 294.73 40.98 295.51 37.66 C 296.10 35.40 294.52 33.43 293.36 31.67 C 290.67 27.98 287.76 24.45 285.02 20.80 C 287.77 17.76 290.71 14.92 293.83 12.27 C 297.49 14.89 301.01 17.71 304.65 20.37 C 306.41 21.53 308.36 23.13 310.62 22.52 C 313.94 21.73 317.39 20.50 319.88 18.09 C 322.00 12.31 321.94 6.01 323.00 0.00 M 325.48 34.59 C 316.25 36.14 308.64 44.02 307.46 53.31 C 305.54 65.03 315.27 76.99 327.08 77.73 C 335.39 78.70 343.80 74.14 347.92 66.94 C 351.84 60.38 351.79 51.66 347.88 45.11 C 343.41 37.58 334.22 32.80 325.48 34.59 Z" />
<path fill="#10147e" opacity="1.00" d=" M 331.88 226.76 C 341.92 226.36 351.96 226.68 362.00 226.58 C 373.49 226.67 384.98 226.39 396.46 226.73 C 396.38 232.61 395.75 238.48 394.48 244.22 C 388.49 274.95 373.04 303.69 350.91 325.81 C 349.95 325.60 349.05 325.25 348.20 324.77 C 347.12 317.56 346.18 310.33 344.91 303.15 C 334.17 302.97 323.41 302.70 312.68 303.30 C 312.06 310.33 311.24 317.35 309.90 324.29 C 303.79 320.40 298.40 315.49 292.19 311.75 C 284.71 319.07 277.25 326.41 270.02 333.98 C 274.10 340.01 278.88 345.54 282.93 351.60 C 275.76 352.72 268.54 353.53 261.34 354.45 C 261.38 359.89 261.29 365.33 260.99 370.77 C 246.01 372.67 230.75 372.91 215.81 370.56 C 200.31 368.26 184.94 364.14 170.92 357.02 C 181.58 338.22 192.54 319.57 203.27 300.81 C 210.60 302.69 217.71 305.51 225.27 306.40 C 241.75 308.69 258.81 306.69 274.17 300.22 C 296.83 291.05 315.35 272.51 324.98 250.09 C 328.36 242.67 329.79 234.59 331.88 226.76 Z" />
</g>
<g id="#095aa5ff">
<path fill="#095aa5" opacity="1.00" d=" M 170.97 69.51 C 194.58 58.43 220.97 53.31 247.02 54.82 C 251.76 55.09 256.49 55.64 261.21 56.14 C 261.43 61.35 261.50 66.58 261.43 71.80 C 268.52 73.31 275.72 74.15 282.89 75.21 C 278.81 81.16 273.96 86.57 270.31 92.82 C 277.50 100.37 285.02 107.59 292.32 115.02 C 298.61 111.35 303.71 105.97 310.25 102.71 C 311.26 109.70 312.07 116.71 313.21 123.67 C 323.77 123.76 334.33 123.77 344.89 123.66 C 346.30 116.05 346.92 108.30 348.52 100.72 C 350.71 101.57 352.85 102.76 354.44 104.53 C 370.23 121.60 382.59 141.97 389.71 164.14 C 393.32 175.83 396.20 187.87 396.51 200.15 C 384.01 200.46 371.50 200.20 359.00 200.28 C 349.83 200.15 340.64 200.64 331.49 199.96 C 329.24 185.28 323.69 171.03 314.99 158.96 C 300.01 137.92 276.09 123.27 250.35 120.31 C 240.85 119.10 231.17 119.33 221.73 120.97 C 215.44 122.09 209.42 124.28 203.30 126.03 C 196.42 113.83 189.25 101.78 182.32 89.60 C 178.55 82.90 174.31 76.45 170.97 69.51 Z" />
<path fill="#095aa5" opacity="1.00" d=" M 51.10 157.32 C 55.03 157.25 58.97 157.25 62.90 157.30 C 63.86 163.58 64.72 169.87 65.78 176.13 C 69.60 177.54 73.37 179.06 77.09 180.70 C 82.24 177.11 87.15 173.20 92.23 169.52 C 95.36 172.07 98.25 174.88 100.90 177.92 C 97.22 183.00 93.34 187.94 89.77 193.09 C 91.28 196.90 92.84 200.69 94.38 204.49 C 100.60 205.52 106.83 206.48 113.09 207.27 C 113.35 211.39 113.33 215.52 112.95 219.64 C 106.88 220.32 100.84 221.26 94.76 221.89 C 93.16 225.79 90.73 229.54 90.30 233.80 C 93.11 239.30 97.71 243.66 100.97 248.90 C 98.21 251.84 95.30 254.64 92.19 257.22 C 87.10 253.56 82.21 249.64 77.03 246.11 C 73.33 247.76 69.58 249.32 65.79 250.74 C 64.92 256.90 64.01 263.06 63.00 269.20 C 59.00 269.47 54.99 269.47 51.00 269.20 C 49.97 263.06 49.08 256.90 48.22 250.74 C 44.42 249.33 40.67 247.79 36.97 246.14 C 31.72 249.37 27.32 253.88 21.89 256.80 C 18.19 255.19 15.89 251.59 13.06 248.87 C 16.60 243.75 20.45 238.86 24.13 233.85 C 22.67 229.99 21.13 226.17 19.61 222.33 C 13.43 221.36 7.24 220.45 1.04 219.66 C 0.67 215.54 0.65 211.39 0.92 207.27 C 7.16 206.58 13.36 205.63 19.56 204.64 C 21.12 200.83 22.68 197.01 24.19 193.18 C 20.60 188.01 16.67 183.08 13.03 177.95 C 15.65 175.11 18.38 172.38 21.18 169.71 C 26.75 172.88 31.60 177.11 36.89 180.71 C 40.61 179.07 44.37 177.54 48.19 176.15 C 49.05 169.86 49.88 163.56 51.10 157.32 M 50.46 192.62 C 41.77 195.29 35.22 203.87 35.20 213.00 C 34.92 220.47 39.02 227.75 45.25 231.76 C 52.39 236.44 62.37 236.30 69.33 231.34 C 77.46 225.88 81.02 214.74 77.39 205.62 C 73.56 195.16 61.06 189.04 50.46 192.62 Z" />
</g>
<g id="#41b6c8ff">
<path fill="#41b6c8" opacity="1.00" d=" M 136.57 91.58 C 140.15 88.48 143.97 85.67 147.95 83.12 C 157.22 98.29 165.74 113.91 174.84 129.19 C 176.87 132.60 178.75 136.11 180.47 139.69 C 170.40 147.95 161.61 157.93 155.60 169.54 C 143.69 191.88 141.28 219.21 149.61 243.17 C 153.05 253.27 158.08 262.86 164.74 271.22 C 169.35 277.20 174.91 282.37 180.63 287.26 C 169.90 306.24 158.83 325.03 148.01 343.95 C 122.48 326.20 102.24 300.87 90.87 271.90 C 93.43 271.59 95.92 270.68 97.62 268.66 C 103.66 262.35 110.00 256.34 116.02 250.01 C 111.96 244.14 107.38 238.67 103.49 232.69 C 110.50 231.17 117.68 230.64 124.68 229.06 C 124.79 218.50 124.75 207.95 124.70 197.39 C 117.49 196.40 110.27 195.40 103.05 194.41 C 107.15 188.40 111.75 182.76 116.02 176.87 C 108.84 169.28 101.37 161.97 93.90 154.67 C 92.58 155.31 91.26 155.95 89.94 156.60 C 92.97 149.86 95.85 143.04 99.51 136.60 C 108.91 119.45 121.63 104.18 136.57 91.58 Z" />
<path fill="#41b6c8" opacity="1.00" d=" M 323.07 314.29 C 327.01 314.25 330.95 314.25 334.90 314.30 C 336.04 320.62 336.92 326.98 337.73 333.35 C 341.57 334.67 345.36 336.17 349.05 337.89 C 354.55 334.65 358.91 329.58 364.82 327.07 C 367.99 329.24 370.42 332.27 373.04 335.03 C 369.41 340.14 365.56 345.08 361.86 350.13 C 363.36 353.87 364.46 357.84 366.61 361.29 C 367.65 362.06 369.00 362.17 370.24 362.44 C 375.13 363.19 380.05 363.69 384.96 364.32 C 385.34 368.46 385.33 372.63 385.04 376.78 C 378.82 377.49 372.64 378.47 366.45 379.32 C 364.93 383.16 363.37 386.98 361.81 390.80 C 365.51 395.90 369.35 400.90 372.99 406.05 C 370.34 408.88 367.60 411.62 364.82 414.32 C 359.32 411.02 354.38 406.92 349.11 403.29 C 345.41 404.96 341.65 406.49 337.82 407.85 C 336.98 414.04 336.08 420.21 335.08 426.37 C 331.05 426.68 327.00 426.68 322.97 426.41 C 322.14 420.22 321.24 414.03 320.22 407.87 C 316.39 406.49 312.62 404.96 308.91 403.29 C 303.80 406.94 298.85 410.81 293.78 414.51 C 290.66 411.92 287.74 409.09 285.04 406.07 C 288.75 401.04 292.60 396.10 296.23 391.01 C 294.89 387.56 293.80 384.01 292.16 380.69 C 291.56 379.19 289.74 379.18 288.42 378.83 C 283.28 377.95 278.08 377.44 272.91 376.75 C 272.70 372.64 272.70 368.53 272.94 364.42 C 278.18 363.75 283.46 363.29 288.67 362.39 C 289.81 362.09 291.33 362.01 291.85 360.74 C 293.55 357.41 295.27 353.92 295.74 350.18 C 292.86 344.71 288.35 340.29 285.06 335.07 C 287.82 332.15 290.72 329.35 293.79 326.76 C 298.87 330.50 303.82 334.42 309.07 337.93 C 312.74 336.25 316.46 334.69 320.23 333.22 C 321.25 326.92 322.12 320.60 323.07 314.29 M 323.40 349.55 C 314.28 351.84 307.31 360.65 307.24 370.06 C 306.81 380.69 315.35 390.88 325.95 392.12 C 333.26 393.23 340.94 390.30 345.65 384.61 C 351.64 377.77 352.56 367.01 347.65 359.33 C 342.84 351.24 332.49 346.97 323.40 349.55 Z" />
</g>
</svg>
