<?xml version="1.0" encoding="UTF-8" ?>
<!DOCTYPE svg PUBLIC "-//W3C//DTD SVG 1.1//EN" "http://www.w3.org/Graphics/SVG/1.1/DTD/svg11.dtd">
<svg width="715pt" height="700pt" viewBox="0 0 715 700" version="1.1" xmlns="http://www.w3.org/2000/svg">
<g id="#00a0e1ff">
<path fill="#00a0e1" opacity="1.00" d=" M 357.27 0.00 L 360.80 0.00 C 417.39 0.33 473.93 13.82 524.23 39.84 C 582.91 69.94 632.99 116.67 666.67 173.41 C 697.74 225.36 714.54 285.67 715.00 346.20 L 715.00 355.83 C 714.32 380.56 711.30 405.25 705.42 429.29 L 704.81 429.57 C 703.16 429.17 701.40 428.83 699.95 429.92 C 695.86 432.36 692.39 435.67 688.84 438.81 C 674.76 451.74 661.35 465.40 646.83 477.85 C 638.40 484.91 629.85 492.22 619.68 496.66 C 616.16 498.06 610.88 499.66 608.52 495.60 C 604.62 488.41 605.16 479.84 604.77 471.92 C 603.92 450.47 608.63 429.37 613.44 408.61 C 628.32 346.36 648.60 285.03 655.08 221.08 C 656.14 205.43 658.42 189.05 652.87 173.94 C 647.24 157.62 633.76 144.03 617.07 139.17 C 601.30 134.32 584.37 137.58 569.26 143.21 C 542.90 153.26 519.72 170.06 498.55 188.43 C 458.72 223.46 426.04 265.81 397.28 310.17 C 410.18 271.51 415.61 230.62 415.95 189.95 C 416.26 175.77 411.70 160.88 400.98 151.13 C 388.47 139.55 370.52 135.82 353.92 137.03 C 335.99 138.56 319.14 145.88 303.62 154.64 C 278.65 169.03 256.56 187.91 236.22 208.22 C 204.89 239.65 177.89 275.12 153.39 312.05 C 159.41 288.74 165.66 265.48 171.00 241.99 C 175.39 222.22 179.59 202.26 180.34 181.96 C 180.73 173.52 179.21 164.75 174.50 157.60 C 168.88 148.73 159.28 143.00 149.20 140.68 C 138.28 138.12 126.93 139.29 115.97 140.98 C 97.72 144.00 80.12 149.94 62.83 156.39 C 64.43 153.45 66.47 150.77 68.02 147.80 C 69.20 146.05 70.47 144.36 71.81 142.73 C 73.78 142.81 75.12 141.05 75.26 139.21 L 75.06 138.58 C 113.65 88.80 165.72 49.56 224.16 26.06 C 266.34 8.98 311.79 0.37 357.27 0.00 Z" />
<path fill="#00a0e1" opacity="1.00" d=" M 49.12 176.28 C 50.34 174.62 51.49 172.91 52.65 171.21 C 60.70 193.49 60.70 217.72 58.05 240.99 C 53.41 282.84 44.26 324.05 33.77 364.78 C 27.24 389.28 20.43 413.74 12.31 437.77 C 4.72 411.11 0.79 383.46 0.00 355.77 L 0.00 342.25 C 0.51 324.46 2.19 306.69 5.50 289.19 C 12.92 249.29 28.04 210.92 49.12 176.28 Z" />
<path fill="#00a0e1" opacity="1.00" d=" M 267.62 248.68 C 272.83 244.40 278.44 240.08 285.16 238.59 C 290.18 237.70 296.65 238.86 298.97 244.00 C 301.69 250.34 300.32 257.44 299.67 264.07 C 296.05 289.50 290.05 314.51 284.39 339.54 C 267.36 412.46 248.81 485.01 231.44 557.85 C 242.81 569.54 257.58 578.22 273.85 580.68 C 289.48 583.53 305.50 581.07 320.53 576.46 C 329.59 573.58 338.76 570.41 346.68 565.00 C 344.35 557.60 342.22 549.59 344.28 541.87 C 351.27 510.31 363.48 480.19 376.85 450.85 C 391.31 419.49 407.69 389.03 425.48 359.44 C 442.12 331.95 459.85 305.04 479.92 279.92 C 489.15 268.59 498.74 257.40 510.03 248.05 C 514.77 244.32 519.85 240.47 525.90 239.30 C 530.08 238.75 535.23 239.29 537.89 242.99 C 540.56 247.07 540.36 252.26 539.85 256.91 C 538.57 266.28 536.68 275.55 534.88 284.84 C 525.80 329.90 515.33 374.67 505.39 419.55 C 500.67 440.33 495.49 461.04 492.10 482.10 C 489.30 499.75 487.51 518.01 491.62 535.62 C 494.58 549.04 501.45 561.95 512.49 570.41 C 525.35 580.45 542.05 583.96 558.06 584.29 C 573.19 584.80 587.93 579.94 601.37 573.37 C 628.72 559.76 651.89 539.01 671.64 515.95 C 671.43 516.62 670.99 517.96 670.77 518.63 C 632.40 587.39 570.01 642.18 497.30 672.24 C 453.87 690.43 406.85 699.57 359.81 700.00 L 355.26 700.00 C 313.08 699.51 270.93 692.07 231.38 677.29 C 171.94 655.25 118.39 617.19 78.53 567.85 L 78.31 566.80 C 85.99 559.12 91.22 549.45 95.49 539.57 C 109.36 507.07 122.81 474.40 137.02 442.05 C 149.80 413.19 163.26 384.39 181.28 358.35 C 199.34 332.23 217.44 306.09 237.31 281.29 C 246.69 269.79 256.32 258.36 267.62 248.68 Z" />
</g>
<g id="#ffffffff">
<path fill="#ffffff" opacity="1.00" d=" M 303.62 154.64 C 319.14 145.88 335.99 138.56 353.92 137.03 C 370.52 135.82 388.47 139.55 400.98 151.13 C 411.70 160.88 416.26 175.77 415.95 189.95 C 415.61 230.62 410.18 271.51 397.28 310.17 C 426.04 265.81 458.72 223.46 498.55 188.43 C 519.72 170.06 542.90 153.26 569.26 143.21 C 584.37 137.58 601.30 134.32 617.07 139.17 C 633.76 144.03 647.24 157.62 652.87 173.94 C 658.42 189.05 656.14 205.43 655.08 221.08 C 648.60 285.03 628.32 346.36 613.44 408.61 C 608.63 429.37 603.92 450.47 604.77 471.92 C 605.16 479.84 604.62 488.41 608.52 495.60 C 610.88 499.66 616.16 498.06 619.68 496.66 C 629.85 492.22 638.40 484.91 646.83 477.85 C 661.35 465.40 674.76 451.74 688.84 438.81 C 692.39 435.67 695.86 432.36 699.95 429.92 C 701.40 428.83 703.16 429.17 704.81 429.57 C 699.58 450.26 692.99 470.66 684.19 490.13 C 680.46 498.73 676.04 506.99 671.83 515.35 C 671.78 515.50 671.69 515.80 671.64 515.95 C 651.89 539.01 628.72 559.76 601.37 573.37 C 587.93 579.94 573.19 584.80 558.06 584.29 C 542.05 583.96 525.35 580.45 512.49 570.41 C 501.45 561.95 494.58 549.04 491.62 535.62 C 487.51 518.01 489.30 499.75 492.10 482.10 C 495.49 461.04 500.67 440.33 505.39 419.55 C 515.33 374.67 525.80 329.90 534.88 284.84 C 536.68 275.55 538.57 266.28 539.85 256.91 C 540.36 252.26 540.56 247.07 537.89 242.99 C 535.23 239.29 530.08 238.75 525.90 239.30 C 519.85 240.47 514.77 244.32 510.03 248.05 C 498.74 257.40 489.15 268.59 479.92 279.92 C 459.85 305.04 442.12 331.95 425.48 359.44 C 407.69 389.03 391.31 419.49 376.85 450.85 C 363.48 480.19 351.27 510.31 344.28 541.87 C 342.22 549.59 344.35 557.60 346.68 565.00 C 338.76 570.41 329.59 573.58 320.53 576.46 C 305.50 581.07 289.48 583.53 273.85 580.68 C 257.58 578.22 242.81 569.54 231.44 557.85 C 248.81 485.01 267.36 412.46 284.39 339.54 C 290.05 314.51 296.05 289.50 299.67 264.07 C 300.32 257.44 301.69 250.34 298.97 244.00 C 296.65 238.86 290.18 237.70 285.16 238.59 C 278.44 240.08 272.83 244.40 267.62 248.68 C 256.32 258.36 246.69 269.79 237.31 281.29 C 217.44 306.09 199.34 332.23 181.28 358.35 C 163.26 384.39 149.80 413.19 137.02 442.05 C 122.81 474.40 109.36 507.07 95.49 539.57 C 91.22 549.45 85.99 559.12 78.31 566.80 L 78.53 567.85 C 47.73 529.71 24.75 485.23 12.31 437.77 C 20.43 413.74 27.24 389.28 33.77 364.78 C 44.26 324.05 53.41 282.84 58.05 240.99 C 60.70 217.72 60.70 193.49 52.65 171.21 C 51.49 172.91 50.34 174.62 49.12 176.28 C 54.98 166.51 61.28 156.99 68.02 147.80 C 66.47 150.77 64.43 153.45 62.83 156.39 C 80.12 149.94 97.72 144.00 115.97 140.98 C 126.93 139.29 138.28 138.12 149.20 140.68 C 159.28 143.00 168.88 148.73 174.50 157.60 C 179.21 164.75 180.73 173.52 180.34 181.96 C 179.59 202.26 175.39 222.22 171.00 241.99 C 165.66 265.48 159.41 288.74 153.39 312.05 C 177.89 275.12 204.89 239.65 236.22 208.22 C 256.56 187.91 278.65 169.03 303.62 154.64 Z" />
<path fill="#ffffff" opacity="1.00" d=" M 71.81 142.73 C 72.55 141.10 73.58 139.62 75.06 138.58 L 75.26 139.21 C 75.12 141.05 73.78 142.81 71.81 142.73 Z" />
</g>
</svg>
