<?xml version="1.0" encoding="UTF-8" ?>
<!DOCTYPE svg PUBLIC "-//W3C//DTD SVG 1.1//EN" "http://www.w3.org/Graphics/SVG/1.1/DTD/svg11.dtd">
<svg width="595pt" height="383pt" viewBox="0 0 595 383" version="1.1" xmlns="http://www.w3.org/2000/svg">
<g id="#6eb927ff">
<path fill="#6eb927" opacity="1.00" d=" M 209.11 22.91 C 226.71 18.29 244.79 15.64 262.95 14.57 C 284.14 13.90 305.37 14.32 326.53 15.72 C 361.27 18.52 395.41 26.48 428.59 36.95 C 428.71 31.13 428.70 25.30 428.77 19.47 C 447.70 21.80 466.39 25.94 484.96 30.26 C 502.16 34.66 519.47 39.44 535.30 47.65 C 543.09 51.66 548.70 58.90 552.13 66.83 C 558.25 80.49 563.20 94.74 566.48 109.36 C 555.33 117.44 542.97 124.79 529.02 126.38 C 519.54 127.47 509.92 126.15 500.85 123.31 C 479.76 116.94 460.68 105.55 442.23 93.77 C 445.21 100.78 447.79 108.04 451.28 114.79 C 468.94 123.90 487.31 132.11 506.67 136.93 C 522.56 140.91 538.95 136.10 553.51 129.69 C 557.25 128.26 560.42 125.24 564.60 125.16 C 564.07 129.88 562.53 134.42 560.71 138.77 C 559.14 142.68 555.20 144.73 551.77 146.75 C 541.34 152.09 530.56 156.96 519.11 159.63 C 501.13 164.00 482.56 166.00 464.06 165.45 C 448.05 164.76 432.17 160.97 416.10 162.47 C 410.52 163.24 405.06 166.32 402.42 171.44 C 398.32 179.67 398.46 189.36 400.48 198.15 C 403.76 213.56 412.06 227.20 420.72 240.13 C 417.21 239.42 414.12 237.59 410.89 236.17 C 401.29 231.79 391.76 227.26 382.15 222.88 C 376.19 220.59 372.55 215.04 368.31 210.60 C 359.90 201.70 352.70 191.58 343.07 183.88 C 332.11 174.73 318.31 168.58 303.90 168.27 C 293.73 168.10 282.87 169.27 274.38 175.39 C 268.18 179.34 263.85 185.75 261.99 192.82 C 258.53 205.79 259.59 219.43 261.50 232.57 C 250.16 227.23 239.03 221.48 227.69 216.14 C 226.32 211.20 225.50 206.12 223.76 201.29 C 218.92 186.97 209.97 174.34 199.32 163.75 C 184.21 149.09 165.03 137.49 143.76 135.25 C 125.82 133.02 106.27 136.31 91.96 147.96 C 81.31 156.74 73.22 169.11 70.88 182.84 C 68.60 197.94 72.80 213.77 81.94 225.96 C 90.01 237.01 102.50 244.68 115.97 247.05 C 127.21 249.09 139.32 248.78 149.77 243.77 C 158.90 239.38 165.12 230.08 166.65 220.18 C 169.70 203.31 158.10 184.39 140.90 181.15 C 133.81 179.70 125.68 180.12 119.85 184.86 C 114.89 188.69 113.53 196.59 117.33 201.67 C 118.93 203.95 121.51 205.17 123.93 206.38 C 130.00 206.96 135.88 202.46 141.81 205.22 C 148.80 207.87 151.12 217.69 146.31 223.31 C 142.25 227.93 135.86 229.28 130.08 230.31 C 115.83 232.61 101.15 224.34 94.37 211.87 C 87.50 199.20 89.18 182.55 98.28 171.40 C 106.85 160.23 121.16 154.86 134.94 154.73 C 149.26 154.83 163.44 160.34 174.13 169.86 C 186.44 180.66 193.71 196.73 194.44 213.02 C 195.54 231.29 187.26 249.60 173.59 261.60 C 160.92 272.74 143.74 277.87 127.04 277.66 C 105.91 278.27 84.72 270.95 68.29 257.70 C 53.86 246.14 43.63 229.72 38.67 211.99 C 33.64 192.79 35.59 172.25 41.83 153.57 C 55.07 118.28 81.61 89.41 112.32 68.25 C 141.84 48.08 174.44 32.01 209.11 22.91 M 505.59 50.80 C 501.34 51.60 497.17 53.08 493.55 55.47 C 481.93 62.70 476.38 78.04 480.62 91.04 C 484.59 105.07 499.38 114.92 513.86 113.23 C 523.12 112.15 531.90 106.93 536.89 98.99 C 542.54 90.40 543.37 78.90 539.33 69.49 C 534.03 56.56 519.38 48.42 505.59 50.80 Z" />
<path fill="#6eb927" opacity="1.00" d=" M 498.44 63.42 C 504.95 58.97 513.91 58.55 520.83 62.30 C 527.45 65.65 531.89 72.69 532.48 80.03 C 533.09 87.03 529.96 94.16 524.52 98.57 C 517.90 104.24 507.77 105.09 500.18 100.86 C 493.85 97.58 489.90 90.96 488.75 84.06 C 488.75 82.36 488.75 80.66 488.75 78.95 C 489.85 72.80 493.12 66.88 498.44 63.42 M 512.58 70.86 C 508.70 71.43 503.97 74.73 505.63 79.20 C 508.65 84.00 515.59 84.67 520.45 82.53 C 523.19 81.51 525.60 78.49 524.35 75.48 C 522.15 71.41 516.86 70.10 512.58 70.86 Z" />
<path fill="#6eb927" opacity="1.00" d=" M 21.52 296.81 C 25.80 295.07 30.51 295.84 35.00 295.69 C 39.20 295.83 43.56 295.15 47.61 296.59 C 52.27 298.36 55.70 303.09 55.54 308.13 C 55.57 316.76 55.59 325.39 55.53 334.01 C 55.67 339.96 50.94 345.61 45.00 346.30 C 40.32 346.61 35.64 346.32 30.96 346.43 C 27.92 346.35 24.71 346.77 21.84 345.54 C 17.33 343.71 13.95 339.02 14.29 334.07 C 14.30 325.06 14.24 316.04 14.32 307.03 C 14.30 302.55 17.55 298.58 21.52 296.81 M 24.86 304.75 C 24.18 306.08 23.13 307.36 23.20 308.94 C 23.13 316.95 23.16 324.97 23.19 332.98 C 23.07 334.61 24.06 335.96 24.75 337.34 C 30.04 338.95 35.65 337.99 41.09 338.21 C 43.92 338.43 46.78 336.01 46.51 333.07 C 46.55 325.01 46.57 316.94 46.50 308.88 C 46.57 306.10 43.92 303.86 41.22 303.92 C 35.77 303.95 30.17 303.21 24.86 304.75 Z" />
<path fill="#6eb927" opacity="1.00" d=" M 68.50 296.60 C 70.60 295.54 73.02 295.39 75.08 296.66 C 75.78 298.08 76.69 299.39 77.74 300.58 C 83.84 298.02 90.01 294.53 96.89 295.43 C 102.99 295.50 109.08 299.99 109.52 306.35 C 109.74 315.57 109.56 324.81 109.61 334.04 C 109.74 337.82 108.10 341.71 105.01 343.97 C 101.29 346.82 96.31 346.97 91.84 346.60 C 86.73 346.19 82.37 343.24 77.49 341.96 C 76.18 346.55 77.60 351.29 76.89 355.96 C 76.20 360.42 78.74 365.69 75.11 369.33 C 73.60 369.36 72.08 369.42 70.57 369.50 C 69.20 368.39 67.80 367.03 68.11 365.08 C 68.07 346.73 68.11 328.37 68.10 310.02 C 68.15 305.55 67.84 301.05 68.50 296.60 M 81.74 304.07 C 79.64 304.32 77.56 305.92 77.34 308.12 C 76.48 313.34 76.82 318.67 77.12 323.93 C 77.33 327.66 76.44 331.51 77.63 335.15 C 78.54 337.15 80.77 338.24 82.90 338.20 C 87.28 338.21 91.67 338.37 96.05 338.10 C 98.90 337.70 100.93 334.89 100.71 332.07 C 100.75 324.70 100.76 317.32 100.70 309.95 C 100.94 307.00 98.62 304.20 95.65 304.01 C 91.03 303.78 86.35 303.68 81.74 304.07 Z" />
<path fill="#6eb927" opacity="1.00" d=" M 122.31 307.07 C 122.40 300.99 128.03 296.01 133.95 295.77 C 139.63 295.58 145.32 295.70 151.01 295.71 C 155.16 295.71 159.39 297.68 161.68 301.20 C 164.93 305.84 163.52 311.80 163.79 317.09 C 164.21 320.58 162.01 324.79 158.09 324.66 C 149.14 324.82 140.19 324.69 131.24 324.71 C 131.36 328.90 130.20 333.58 132.82 337.24 C 139.34 339.30 146.27 337.53 152.95 338.44 C 156.77 339.37 156.22 346.42 152.10 346.35 C 146.09 346.50 140.07 346.42 134.06 346.40 C 127.62 346.42 122.07 340.40 122.28 334.04 C 122.28 325.05 122.23 316.06 122.31 307.07 M 132.84 304.70 C 130.13 308.35 131.35 313.09 131.30 317.29 C 139.08 317.23 146.86 317.25 154.63 317.28 C 154.69 313.81 155.02 310.30 154.43 306.86 C 153.20 303.93 149.69 303.75 146.97 303.84 C 142.26 304.00 137.44 303.34 132.84 304.70 Z" />
<path fill="#6eb927" opacity="1.00" d=" M 173.77 299.91 C 173.52 297.49 175.49 295.05 178.07 295.67 C 180.88 295.42 181.81 298.52 183.02 300.41 C 187.88 299.36 192.03 296.20 197.03 295.61 C 201.93 294.98 207.47 295.33 211.40 298.65 C 214.41 301.16 215.60 305.20 215.51 309.00 C 215.51 319.67 215.50 330.34 215.52 341.02 C 215.43 342.51 215.65 344.24 214.42 345.37 C 212.01 347.52 206.72 346.73 206.59 342.92 C 206.41 331.95 206.62 320.96 206.51 309.98 C 206.91 306.87 204.14 304.09 201.12 303.94 C 197.39 303.72 193.65 303.83 189.92 303.86 C 187.83 303.94 185.33 304.17 184.07 306.08 C 182.00 308.95 182.96 312.69 182.76 315.98 C 182.56 325.72 183.20 335.49 182.40 345.20 C 179.99 346.72 176.99 346.83 174.56 345.30 C 174.02 343.22 173.65 341.10 173.73 338.96 C 173.81 325.94 173.72 312.93 173.77 299.91 Z" />
</g>
<g id="#0d5148ff">
<path fill="#0d5148" opacity="1.00" d=" M 249.45 262.57 C 261.28 262.29 273.11 262.56 284.94 262.44 C 287.90 262.44 291.30 262.19 293.62 264.43 C 296.08 266.47 296.19 269.98 295.72 272.89 C 295.11 276.40 291.43 278.67 288.01 278.39 C 276.67 278.45 265.34 278.32 254.00 278.44 C 251.10 278.37 247.58 279.86 247.25 283.11 C 246.96 286.03 246.95 289.00 247.26 291.92 C 247.75 295.00 251.02 296.85 253.96 296.68 C 264.31 296.74 274.67 296.65 285.02 296.70 C 290.48 296.75 296.16 299.12 299.22 303.81 C 302.66 308.80 302.17 315.19 302.23 320.96 C 302.26 327.35 301.91 334.42 297.63 339.56 C 294.21 344.05 288.55 346.34 283.00 346.35 C 268.32 346.41 253.63 346.33 238.94 346.39 C 236.45 346.40 233.60 346.19 231.81 344.23 C 227.60 340.05 229.67 330.92 236.13 330.56 C 250.77 330.22 265.44 330.57 280.08 330.40 C 282.68 330.62 284.42 328.10 284.69 325.78 C 285.32 322.07 285.59 318.14 284.58 314.47 C 284.16 312.44 281.88 311.87 280.10 311.86 C 269.39 311.73 258.68 311.95 247.98 311.78 C 238.74 311.51 230.52 303.54 230.09 294.28 C 229.69 287.37 228.90 279.81 232.47 273.53 C 235.86 267.37 242.40 263.04 249.45 262.57 Z" />
<path fill="#0d5148" opacity="1.00" d=" M 424.42 262.56 C 437.27 262.33 450.14 262.49 462.99 262.48 C 467.11 262.20 471.20 265.67 470.83 269.95 C 471.56 274.10 468.30 278.37 464.02 278.34 C 452.36 278.52 440.69 278.29 429.03 278.43 C 426.63 278.47 423.82 279.18 422.68 281.51 C 421.46 284.61 421.61 288.08 422.02 291.33 C 422.37 294.23 425.01 296.60 427.94 296.62 C 438.96 296.85 449.99 296.55 461.01 296.75 C 468.75 296.90 476.19 303.02 476.66 310.95 C 476.96 318.56 477.88 326.43 475.67 333.86 C 473.98 338.87 470.10 343.19 465.10 345.03 C 460.27 346.88 455.01 346.28 449.96 346.37 C 436.94 346.26 423.92 346.57 410.91 346.23 C 404.01 345.68 402.47 335.37 407.70 331.72 C 409.54 330.48 411.83 330.45 413.97 330.42 C 427.69 330.41 441.41 330.49 455.12 330.40 C 457.62 330.56 459.24 328.14 459.61 325.94 C 460.01 323.31 459.90 320.65 459.89 318.00 C 459.80 316.18 459.98 313.97 458.37 312.70 C 456.74 311.77 454.81 311.84 453.01 311.81 C 443.33 311.84 433.65 311.85 423.98 311.83 C 417.35 311.90 410.81 308.21 407.51 302.45 C 405.22 298.73 404.75 294.24 404.74 289.97 C 404.76 285.58 404.48 281.08 405.85 276.84 C 408.60 269.05 416.10 263.06 424.42 262.56 Z" />
<path fill="#0d5148" opacity="1.00" d=" M 491.62 270.03 C 491.22 265.83 494.96 262.17 499.12 262.48 C 516.77 262.46 534.44 262.39 552.09 262.51 C 556.10 262.38 559.55 266.00 559.23 270.01 C 559.91 274.29 556.40 278.64 551.98 278.37 C 537.54 278.46 523.09 278.34 508.64 278.42 C 508.66 284.52 508.59 290.62 508.69 296.72 C 519.16 296.66 529.62 296.73 540.09 296.67 C 542.34 296.65 544.81 296.75 546.65 298.24 C 551.76 302.06 549.85 312.33 542.91 312.58 C 531.50 312.79 520.07 312.59 508.66 312.67 C 508.63 318.59 508.64 324.50 508.65 330.42 C 523.10 330.44 537.55 330.45 552.00 330.41 C 554.17 330.44 556.51 330.43 558.43 331.64 C 563.84 335.24 562.25 346.11 555.04 346.27 C 537.38 346.52 519.70 346.27 502.03 346.39 C 499.37 346.33 496.37 346.70 494.19 344.86 C 492.04 343.30 491.50 340.52 491.59 338.03 C 491.62 315.36 491.57 292.69 491.62 270.03 Z" />
<path fill="#0d5148" opacity="1.00" d=" M 320.39 263.44 C 325.12 260.92 333.15 262.71 333.58 268.91 C 333.84 286.96 333.53 305.02 333.71 323.06 C 333.80 326.86 337.12 330.31 340.96 330.37 C 348.99 330.51 357.03 330.43 365.06 330.41 C 368.73 330.64 372.65 327.75 372.70 323.92 C 373.29 314.97 373.21 306.00 372.85 297.05 C 373.41 288.71 373.34 280.33 372.85 271.99 C 372.94 269.31 373.22 266.24 375.44 264.42 C 379.98 260.44 389.38 262.23 389.95 269.02 C 390.52 282.00 390.02 295.03 390.19 308.03 C 389.99 315.42 390.76 322.90 389.39 330.22 C 387.80 337.38 382.05 343.25 375.10 345.43 C 368.96 347.58 362.36 346.72 355.99 346.90 C 349.02 346.68 341.98 347.41 335.07 346.35 C 325.25 344.85 316.90 336.14 316.73 326.05 C 316.64 307.71 316.73 289.35 316.68 271.00 C 316.46 268.05 317.75 264.93 320.39 263.44 Z" />
<path fill="#0d5148" opacity="1.00" d=" M 563.29 266.62 C 563.37 266.15 563.52 265.22 563.60 264.75 C 567.18 264.76 570.76 264.77 574.35 264.72 C 575.20 265.79 576.04 266.86 576.90 267.94 C 577.84 266.53 578.84 265.04 580.66 264.76 C 580.76 268.19 581.01 271.67 580.28 275.06 C 577.97 273.48 579.14 270.34 578.72 268.05 C 578.28 268.65 577.40 269.86 576.96 270.46 C 576.44 269.86 575.42 268.67 574.90 268.07 C 574.85 270.44 575.13 272.93 574.06 275.15 C 572.01 272.81 572.90 269.57 572.73 266.76 C 571.86 266.76 570.12 266.75 569.25 266.75 C 569.22 269.22 569.19 271.69 569.18 274.16 C 568.68 274.26 567.69 274.45 567.19 274.55 C 567.02 271.97 566.96 269.38 566.95 266.80 C 565.72 266.73 564.50 266.67 563.29 266.62 Z" />
</g>
</svg>
