<?xml version="1.0" encoding="UTF-8" ?>
<!DOCTYPE svg PUBLIC "-//W3C//DTD SVG 1.1//EN" "http://www.w3.org/Graphics/SVG/1.1/DTD/svg11.dtd">
<svg width="573pt" height="600pt" viewBox="0 0 573 600" version="1.1" xmlns="http://www.w3.org/2000/svg">
<g id="#867dd9e0">
<path fill="#867dd9" opacity="0.88" d=" M 223.69 0.00 L 250.31 0.00 C 254.01 0.50 257.67 1.23 261.37 1.75 C 260.23 2.01 259.09 2.27 257.95 2.52 C 222.61 -1.38 186.77 5.51 154.06 18.96 C 153.57 18.99 152.57 19.05 152.08 19.08 C 174.41 8.16 199.13 2.93 223.69 0.00 Z" />
</g>
<g id="#9c96c6ff">
<path fill="#9c96c6" opacity="1.00" d=" M 154.06 18.96 C 186.77 5.51 222.61 -1.38 257.95 2.52 C 266.18 4.88 275.29 4.86 282.51 9.98 C 274.70 12.65 266.14 12.84 258.74 16.74 C 256.22 16.34 253.68 16.08 251.15 15.80 C 229.17 12.89 207.03 16.57 185.40 20.39 C 164.22 24.12 144.97 34.36 127.49 46.53 C 120.47 44.61 113.73 49.27 106.61 48.86 C 111.80 41.04 120.86 37.46 128.44 32.47 C 136.62 27.29 145.76 23.91 154.06 18.96 Z" />
</g>
<g id="#9991d8ff">
<path fill="#9991d8" opacity="1.00" d=" M 257.95 2.52 C 259.09 2.27 260.23 2.01 261.37 1.75 C 268.92 2.39 276.48 3.57 283.68 6.00 C 293.48 12.59 306.45 13.14 315.32 21.43 C 308.77 23.53 302.03 24.97 295.28 26.23 C 295.53 27.08 295.78 27.93 296.04 28.79 C 288.05 24.99 279.66 22.11 271.12 19.83 C 267.03 18.65 262.91 17.61 258.74 16.74 C 266.14 12.84 274.70 12.65 282.51 9.98 C 275.29 4.86 266.18 4.88 257.95 2.52 Z" />
</g>
<g id="#948ae7ff">
<path fill="#948ae7" opacity="1.00" d=" M 283.68 6.00 C 296.38 8.17 308.38 13.10 319.83 18.89 C 326.01 24.36 334.05 27.24 339.80 33.27 C 334.21 35.72 328.20 36.93 322.25 38.15 C 322.15 38.88 321.93 40.35 321.82 41.08 C 313.26 36.92 304.98 32.12 296.04 28.79 C 295.78 27.93 295.53 27.08 295.28 26.23 C 302.03 24.97 308.77 23.53 315.32 21.43 C 306.45 13.14 293.48 12.59 283.68 6.00 Z" />
</g>
<g id="#ffffffff">
<path fill="#ffffff" opacity="1.00" d=" M 185.40 20.39 C 207.03 16.57 229.17 12.89 251.15 15.80 C 262.92 44.37 271.53 74.28 275.84 104.91 C 274.34 105.21 272.84 105.51 271.34 105.75 C 265.16 105.34 258.91 104.90 252.80 106.27 C 260.46 110.15 269.16 113.55 273.68 121.37 C 276.79 126.77 280.02 135.44 274.95 140.42 C 267.16 139.40 258.17 138.52 251.47 143.47 C 246.28 148.38 243.81 155.45 241.84 162.15 C 230.79 162.49 220.15 158.39 211.42 151.80 C 210.72 154.81 210.07 157.84 209.73 160.92 C 209.70 164.39 210.04 167.87 210.70 171.29 C 211.18 174.07 212.25 176.72 213.51 179.24 C 214.95 182.06 216.63 184.77 218.55 187.30 C 220.43 189.77 222.49 192.10 224.71 194.29 C 228.31 197.84 232.31 200.97 236.52 203.77 C 238.58 205.16 240.65 206.53 242.79 207.79 C 245.07 209.14 247.40 210.41 249.78 211.61 C 255.19 214.38 260.81 216.75 266.57 218.70 C 266.78 222.17 266.86 225.68 266.21 229.11 C 254.96 283.93 230.75 336.52 193.80 378.79 C 158.23 419.97 109.95 451.08 56.37 462.28 C 48.92 463.44 42.54 468.26 34.87 468.48 C 32.63 482.15 39.24 495.91 48.03 506.03 C 50.26 508.73 52.75 511.23 55.52 513.40 C 68.51 523.56 85.41 527.83 101.72 527.00 C 134.26 527.72 166.80 520.70 197.11 509.14 C 222.46 499.74 246.92 487.91 270.32 474.36 C 295.45 460.47 320.09 445.55 343.56 428.99 C 363.80 415.75 383.29 401.37 402.38 386.53 C 423.40 369.99 443.90 352.74 463.32 334.33 C 477.60 321.17 491.65 307.72 504.77 293.40 C 512.52 285.22 520.21 276.93 526.90 267.85 C 536.39 253.39 533.18 233.98 524.63 219.83 C 532.50 215.91 541.37 214.79 550.00 213.77 C 553.74 219.97 557.02 226.44 559.86 233.09 C 563.32 242.27 563.87 252.52 560.88 261.92 C 556.48 276.90 547.82 290.14 538.82 302.73 C 523.75 323.09 505.79 341.04 487.74 358.73 C 476.51 368.85 465.06 378.73 453.72 388.73 C 440.82 398.82 427.99 409.02 414.99 419.00 C 394.02 434.20 372.59 448.76 350.86 462.86 C 313.21 486.16 274.19 507.27 233.58 524.96 C 206.70 535.66 179.32 545.59 150.76 550.76 C 124.37 555.59 96.95 560.08 70.37 554.07 C 56.97 550.31 44.23 543.44 34.97 532.88 C 30.33 527.76 26.57 521.92 23.01 516.01 C 20.02 510.13 17.68 503.95 15.11 497.88 C 13.22 491.44 11.77 484.87 10.69 478.24 C 9.17 458.41 15.34 438.64 26.17 422.15 C 44.46 394.10 69.55 371.52 93.95 348.93 C 105.31 337.92 118.18 328.45 128.78 316.71 C 139.39 309.95 148.04 300.63 158.06 293.08 C 164.82 291.40 171.68 290.15 178.43 288.48 C 185.70 286.96 191.91 280.94 193.76 273.80 C 194.20 267.67 187.75 264.79 182.99 262.91 C 174.48 259.03 166.17 254.74 157.51 251.19 C 148.76 247.02 140.03 242.78 131.22 238.72 C 122.45 234.59 113.80 230.23 105.14 225.89 C 96.39 221.40 87.88 216.47 79.26 211.73 C 71.47 206.63 63.62 201.61 56.15 196.05 C 46.76 189.96 39.43 180.82 36.99 169.75 C 36.86 161.77 37.73 153.75 40.11 146.11 C 46.31 126.72 57.59 109.38 70.72 93.97 C 77.82 86.11 85.37 78.64 93.47 71.81 C 104.82 63.40 116.08 54.86 127.49 46.53 C 144.97 34.36 164.22 24.12 185.40 20.39 Z" />
</g>
<g id="#f4f4fdff">
<path fill="#f4f4fd" opacity="1.00" d=" M 251.15 15.80 C 253.68 16.08 256.22 16.34 258.74 16.74 C 262.91 17.61 267.03 18.65 271.12 19.83 C 273.03 21.68 274.65 23.86 275.62 26.35 C 284.80 52.20 291.34 79.01 294.85 106.23 C 295.28 108.52 293.99 110.52 292.91 112.41 C 292.41 112.21 291.42 111.83 290.92 111.64 C 284.88 109.01 278.31 108.17 271.98 106.51 L 271.34 105.75 C 272.84 105.51 274.34 105.21 275.84 104.91 C 271.53 74.28 262.92 44.37 251.15 15.80 Z" />
</g>
<g id="#9991d7ff">
<path fill="#9991d7" opacity="1.00" d=" M 103.43 46.63 C 118.24 35.32 134.67 25.79 152.08 19.08 C 152.57 19.05 153.57 18.99 154.06 18.96 C 145.76 23.91 136.62 27.29 128.44 32.47 C 120.86 37.46 111.80 41.04 106.61 48.86 C 113.73 49.27 120.47 44.61 127.49 46.53 C 116.08 54.86 104.82 63.40 93.47 71.81 C 88.18 70.96 82.93 72.22 77.72 72.99 C 83.46 61.71 96.03 56.50 103.43 46.63 Z" />
<path fill="#9991d7" opacity="1.00" d=" M 224.71 194.29 C 234.62 194.15 244.86 196.57 254.41 192.78 C 257.56 195.20 261.01 197.20 264.54 198.99 C 255.80 203.66 245.58 200.48 236.52 203.77 C 232.31 200.97 228.31 197.84 224.71 194.29 Z" />
</g>
<g id="#9185f8ff">
<path fill="#9185f8" opacity="1.00" d=" M 319.83 18.89 C 334.21 24.51 347.53 32.48 360.94 40.07 C 394.09 59.98 425.48 82.74 455.07 107.58 C 454.59 108.24 454.12 108.89 453.65 109.55 C 456.18 110.17 458.71 110.85 461.11 111.91 C 460.13 112.37 459.15 112.83 458.19 113.30 C 461.48 115.55 464.08 118.60 466.03 122.07 C 459.44 117.34 453.48 111.84 447.17 106.78 C 436.70 98.17 426.00 89.84 414.96 81.97 C 409.10 77.06 402.74 72.81 396.37 68.58 C 388.55 62.38 377.92 66.49 369.41 68.89 C 361.82 64.05 354.24 59.19 346.39 54.78 C 338.14 50.32 330.08 45.53 321.82 41.08 C 321.93 40.35 322.15 38.88 322.25 38.15 C 328.20 36.93 334.21 35.72 339.80 33.27 C 334.05 27.24 326.01 24.36 319.83 18.89 Z" />
</g>
<g id="#ebeafbff">
<path fill="#ebeafb" opacity="1.00" d=" M 271.12 19.83 C 279.66 22.11 288.05 24.99 296.04 28.79 C 299.25 32.08 301.32 36.30 302.46 40.72 C 309.78 67.22 315.50 94.33 317.16 121.81 C 316.51 121.98 315.20 122.32 314.55 122.49 C 310.76 120.52 306.96 118.61 303.09 116.82 C 299.74 115.24 296.35 113.74 292.91 112.41 C 293.99 110.52 295.28 108.52 294.85 106.23 C 291.34 79.01 284.80 52.20 275.62 26.35 C 274.65 23.86 273.03 21.68 271.12 19.83 Z" />
</g>
<g id="#d8d8f7ff">
<path fill="#d8d8f7" opacity="1.00" d=" M 296.04 28.79 C 304.98 32.12 313.26 36.92 321.82 41.08 C 330.08 45.53 338.14 50.32 346.39 54.78 C 350.57 64.96 351.31 76.07 353.19 86.81 C 358.55 120.31 358.89 154.38 357.35 188.19 C 350.43 294.13 307.37 399.19 230.66 473.64 C 216.81 486.90 201.71 498.70 186.55 510.37 C 190.09 510.27 193.66 510.05 197.11 509.14 C 166.80 520.70 134.26 527.72 101.72 527.00 C 111.14 522.35 121.16 519.12 130.64 514.59 C 199.40 482.11 254.62 424.37 289.00 357.01 C 312.68 312.11 327.38 262.68 333.63 212.36 C 332.76 211.78 331.90 211.20 331.05 210.63 C 342.43 203.46 353.40 192.73 354.56 178.58 C 355.78 164.34 347.67 151.28 338.10 141.46 C 336.14 139.41 334.10 137.43 332.00 135.53 C 328.91 132.76 325.62 130.24 322.24 127.84 C 319.51 125.95 316.70 124.18 313.75 122.68 L 314.55 122.49 C 315.20 122.32 316.51 121.98 317.16 121.81 C 315.50 94.33 309.78 67.22 302.46 40.72 C 301.32 36.30 299.25 32.08 296.04 28.79 Z" />
</g>
<g id="#958be5ff">
<path fill="#958be5" opacity="1.00" d=" M 63.75 81.54 C 75.74 68.61 88.63 56.31 103.43 46.63 C 96.03 56.50 83.46 61.71 77.72 72.99 C 82.93 72.22 88.18 70.96 93.47 71.81 C 85.37 78.64 77.82 86.11 70.72 93.97 C 66.38 91.50 61.48 93.50 56.94 94.13 C 59.62 90.17 62.23 86.11 63.75 81.54 Z" />
</g>
<g id="#cdccf5ff">
<path fill="#cdccf5" opacity="1.00" d=" M 346.39 54.78 C 354.24 59.19 361.82 64.05 369.41 68.89 C 370.94 69.94 372.46 71.02 373.96 72.13 C 377.54 79.29 377.59 87.46 378.74 95.22 C 382.71 124.61 382.34 154.32 381.76 183.91 C 376.25 283.51 341.69 382.61 278.10 460.10 C 274.02 465.05 269.67 469.77 265.90 474.95 C 267.37 474.77 268.84 474.59 270.32 474.36 C 246.92 487.91 222.46 499.74 197.11 509.14 C 193.66 510.05 190.09 510.27 186.55 510.37 C 201.71 498.70 216.81 486.90 230.66 473.64 C 307.37 399.19 350.43 294.13 357.35 188.19 C 358.89 154.38 358.55 120.31 353.19 86.81 C 351.31 76.07 350.57 64.96 346.39 54.78 Z" />
</g>
<g id="#9d93f7ff">
<path fill="#9d93f7" opacity="1.00" d=" M 369.41 68.89 C 377.92 66.49 388.55 62.38 396.37 68.58 C 402.74 72.81 409.10 77.06 414.96 81.97 C 406.82 77.99 398.13 82.30 389.81 83.16 C 384.73 79.19 379.24 75.82 373.96 72.13 C 372.46 71.02 370.94 69.94 369.41 68.89 Z" />
</g>
<g id="#c0bff3ff">
<path fill="#c0bff3" opacity="1.00" d=" M 373.96 72.13 C 379.24 75.82 384.73 79.19 389.81 83.16 C 395.30 87.32 400.88 91.38 406.06 95.93 C 410.68 101.99 410.22 109.90 410.70 117.09 C 417.77 214.48 398.65 314.00 354.01 401.00 C 349.05 410.84 343.17 420.16 338.12 429.95 C 339.94 429.65 341.76 429.38 343.56 428.99 C 320.09 445.55 295.45 460.47 270.32 474.36 C 268.84 474.59 267.37 474.77 265.90 474.95 C 269.67 469.77 274.02 465.05 278.10 460.10 C 341.69 382.61 376.25 283.51 381.76 183.91 C 382.34 154.32 382.71 124.61 378.74 95.22 C 377.59 87.46 377.54 79.29 373.96 72.13 Z" />
</g>
<g id="#a69ff5ff">
<path fill="#a69ff5" opacity="1.00" d=" M 389.81 83.16 C 398.13 82.30 406.82 77.99 414.96 81.97 C 426.00 89.84 436.70 98.17 447.17 106.78 C 439.93 101.68 431.87 107.42 424.18 106.90 C 417.56 104.42 411.94 99.79 406.06 95.93 C 400.88 91.38 395.30 87.32 389.81 83.16 Z" />
</g>
<g id="#9185f7ff">
<path fill="#9185f7" opacity="1.00" d=" M 17.09 156.11 C 26.65 128.14 43.29 102.76 63.75 81.54 C 62.23 86.11 59.62 90.17 56.94 94.13 C 61.48 93.50 66.38 91.50 70.72 93.97 C 57.59 109.38 46.31 126.72 40.11 146.11 C 36.34 150.24 29.94 149.60 25.94 153.01 C 21.54 162.53 20.15 174.14 23.84 184.13 C 25.01 187.52 26.52 190.79 27.94 194.08 C 28.57 195.97 29.11 197.89 29.66 199.80 C 24.17 200.96 18.28 202.91 12.90 200.22 C 10.10 185.46 12.43 170.24 17.09 156.11 Z" />
<path fill="#9185f7" opacity="1.00" d=" M 218.55 187.30 C 228.51 187.05 239.22 191.85 248.64 187.15 C 250.26 188.95 251.99 190.65 253.80 192.27 L 254.41 192.78 C 244.86 196.57 234.62 194.15 224.71 194.29 C 222.49 192.10 220.43 189.77 218.55 187.30 Z" />
</g>
<g id="#b6b3f3ff">
<path fill="#b6b3f3" opacity="1.00" d=" M 406.06 95.93 C 411.94 99.79 417.56 104.42 424.18 106.90 C 431.87 107.42 439.93 101.68 447.17 106.78 C 453.48 111.84 459.44 117.34 466.03 122.07 C 472.51 128.82 480.14 134.34 486.69 141.02 C 487.52 141.87 488.35 142.72 489.20 143.57 C 482.21 144.19 475.32 145.54 468.60 147.54 C 468.61 149.05 468.62 150.57 468.63 152.09 C 460.96 145.14 454.74 136.20 444.98 131.95 C 445.61 145.97 446.93 160.02 445.20 174.03 C 443.51 246.33 427.84 318.32 399.63 384.91 C 400.32 385.32 401.69 386.13 402.38 386.53 C 383.29 401.37 363.80 415.75 343.56 428.99 C 341.76 429.38 339.94 429.65 338.12 429.95 C 343.17 420.16 349.05 410.84 354.01 401.00 C 398.65 314.00 417.77 214.48 410.70 117.09 C 410.22 109.90 410.68 101.99 406.06 95.93 Z" />
</g>
<g id="#e6e6faff">
<path fill="#e6e6fa" opacity="1.00" d=" M 252.80 106.27 C 258.91 104.90 265.16 105.34 271.34 105.75 L 271.98 106.51 C 275.79 111.82 281.27 115.93 284.00 121.98 C 286.80 128.38 288.54 136.39 284.06 142.48 C 281.07 141.62 278.04 140.87 274.95 140.42 C 280.02 135.44 276.79 126.77 273.68 121.37 C 269.16 113.55 260.46 110.15 252.80 106.27 Z" />
<path fill="#e6e6fa" opacity="1.00" d=" M 209.73 160.92 C 210.07 157.84 210.72 154.81 211.42 151.80 C 220.15 158.39 230.79 162.49 241.84 162.15 C 241.37 164.42 241.08 166.74 240.95 169.06 C 229.93 169.54 219.36 165.96 209.73 160.92 Z" />
<path fill="#e6e6fa" opacity="1.00" d=" M 502.95 186.64 C 509.98 182.82 518.07 181.06 526.05 181.73 C 531.16 187.97 536.39 194.13 541.18 200.63 C 532.39 199.81 523.92 202.84 515.64 205.32 C 511.86 200.14 507.94 195.06 503.85 190.12 C 503.55 188.96 503.25 187.80 502.95 186.64 Z" />
</g>
<g id="#c4c3f4ff">
<path fill="#c4c3f4" opacity="1.00" d=" M 271.98 106.51 C 278.31 108.17 284.88 109.01 290.92 111.64 C 290.08 117.12 294.42 121.38 295.36 126.54 C 296.55 132.86 296.94 140.00 293.06 145.53 C 290.11 144.37 287.10 143.37 284.06 142.48 C 288.54 136.39 286.80 128.38 284.00 121.98 C 281.27 115.93 275.79 111.82 271.98 106.51 Z" />
</g>
<g id="#aea9f4ff">
<path fill="#aea9f4" opacity="1.00" d=" M 295.36 126.54 C 294.42 121.38 290.08 117.12 290.92 111.64 C 291.42 111.83 292.41 112.21 292.91 112.41 C 296.35 113.74 299.74 115.24 303.09 116.82 C 305.02 127.54 309.12 140.38 300.97 149.62 C 298.37 148.17 295.80 146.68 293.06 145.53 C 296.94 140.00 296.55 132.86 295.36 126.54 Z" />
</g>
<g id="#9388eaff">
<path fill="#9388ea" opacity="1.00" d=" M 461.11 111.91 C 472.16 121.29 483.01 130.92 493.39 141.05 C 491.15 141.05 488.92 141.04 486.69 141.02 C 480.14 134.34 472.51 128.82 466.03 122.07 C 464.08 118.60 461.48 115.55 458.19 113.30 C 459.15 112.83 460.13 112.37 461.11 111.91 Z" />
<path fill="#9388ea" opacity="1.00" d=" M 312.21 122.99 C 312.59 122.91 313.36 122.76 313.75 122.68 C 316.70 124.18 319.51 125.95 322.24 127.84 C 323.12 137.58 321.07 147.19 317.12 156.07 C 314.97 160.01 318.67 163.23 320.72 166.22 C 321.91 167.89 323.04 169.61 324.04 171.41 C 328.28 184.70 319.17 197.21 308.53 204.19 C 303.34 195.83 293.19 193.23 284.35 190.67 C 274.45 188.61 262.57 185.47 253.80 192.27 C 251.99 190.65 250.26 188.95 248.64 187.15 C 247.16 185.47 245.73 183.76 244.44 181.94 C 243.16 179.12 242.16 176.17 241.50 173.14 C 241.27 171.79 241.09 170.42 240.95 169.06 C 241.08 166.74 241.37 164.42 241.84 162.15 C 243.81 155.45 246.28 148.38 251.47 143.47 C 258.17 138.52 267.16 139.40 274.95 140.42 C 278.04 140.87 281.07 141.62 284.06 142.48 C 287.10 143.37 290.11 144.37 293.06 145.53 C 295.80 146.68 298.37 148.17 300.97 149.62 C 303.35 150.94 305.76 152.21 308.18 153.48 C 314.12 144.51 313.63 133.20 312.21 122.99 Z" />
</g>
<g id="#9d94f7ff">
<path fill="#9d94f7" opacity="1.00" d=" M 303.09 116.82 C 306.96 118.61 310.76 120.52 314.55 122.49 L 313.75 122.68 C 313.36 122.76 312.59 122.91 312.21 122.99 C 313.63 133.20 314.12 144.51 308.18 153.48 C 305.76 152.21 303.35 150.94 300.97 149.62 C 309.12 140.38 305.02 127.54 303.09 116.82 Z" />
</g>
<g id="#9b94d0ff">
<path fill="#9b94d0" opacity="1.00" d=" M 322.24 127.84 C 325.62 130.24 328.91 132.76 332.00 135.53 C 329.75 146.28 326.86 156.96 320.72 166.22 C 318.67 163.23 314.97 160.01 317.12 156.07 C 321.07 147.19 323.12 137.58 322.24 127.84 Z" />
</g>
<g id="#ada8f5ff">
<path fill="#ada8f5" opacity="1.00" d=" M 444.98 131.95 C 454.74 136.20 460.96 145.14 468.63 152.09 C 473.03 156.43 477.40 160.80 481.81 165.13 C 483.78 167.17 485.63 169.34 487.46 171.51 C 485.93 171.46 484.40 171.41 482.87 171.36 C 482.04 226.66 473.21 281.82 458.06 334.99 C 459.81 334.77 461.56 334.55 463.32 334.33 C 443.90 352.74 423.40 369.99 402.38 386.53 C 401.69 386.13 400.32 385.32 399.63 384.91 C 427.84 318.32 443.51 246.33 445.20 174.03 C 446.93 160.02 445.61 145.97 444.98 131.95 Z" />
</g>
<g id="#7f79a5ff">
<path fill="#7f79a5" opacity="1.00" d=" M 320.72 166.22 C 326.86 156.96 329.75 146.28 332.00 135.53 C 334.10 137.43 336.14 139.41 338.10 141.46 C 334.66 151.97 331.74 163.04 324.04 171.41 C 323.04 169.61 321.91 167.89 320.72 166.22 Z" />
</g>
<g id="#978de0ff">
<path fill="#978de0" opacity="1.00" d=" M 486.69 141.02 C 488.92 141.04 491.15 141.05 493.39 141.05 C 512.34 158.98 530.21 178.16 545.93 199.01 C 544.65 199.98 543.37 200.94 542.09 201.91 C 541.87 201.59 541.41 200.95 541.18 200.63 C 536.39 194.13 531.16 187.97 526.05 181.73 C 518.82 173.08 510.84 165.11 503.03 157.00 C 498.64 152.29 493.73 148.12 489.20 143.57 C 488.35 142.72 487.52 141.87 486.69 141.02 Z" />
</g>
<g id="#524c76ff">
<path fill="#524c76" opacity="1.00" d=" M 324.04 171.41 C 331.74 163.04 334.66 151.97 338.10 141.46 C 347.67 151.28 355.78 164.34 354.56 178.58 C 353.40 192.73 342.43 203.46 331.05 210.63 C 322.18 216.05 312.62 220.38 302.74 223.58 C 298.26 224.37 293.68 224.44 289.16 224.04 C 281.46 223.10 273.90 221.22 266.57 218.70 C 260.81 216.75 255.19 214.38 249.78 211.61 C 259.08 207.86 269.85 209.39 278.57 203.95 C 288.35 205.78 298.95 208.15 308.53 204.19 C 319.17 197.21 328.28 184.70 324.04 171.41 Z" />
</g>
<g id="#c6c5f4ff">
<path fill="#c6c5f4" opacity="1.00" d=" M 468.60 147.54 C 475.32 145.54 482.21 144.19 489.20 143.57 C 493.73 148.12 498.64 152.29 503.03 157.00 C 495.70 158.89 487.25 159.11 481.81 165.13 C 477.40 160.80 473.03 156.43 468.63 152.09 C 468.62 150.57 468.61 149.05 468.60 147.54 Z" />
</g>
<g id="#a097f6ff">
<path fill="#a097f6" opacity="1.00" d=" M 25.94 153.01 C 29.94 149.60 36.34 150.24 40.11 146.11 C 37.73 153.75 36.86 161.77 36.99 169.75 C 36.96 170.47 36.90 171.90 36.87 172.62 C 32.68 173.62 28.48 174.58 24.24 175.39 C 24.05 178.30 23.85 181.21 23.84 184.13 C 20.15 174.14 21.54 162.53 25.94 153.01 Z" />
</g>
<g id="#d5d5f7ff">
<path fill="#d5d5f7" opacity="1.00" d=" M 481.81 165.13 C 487.25 159.11 495.70 158.89 503.03 157.00 C 510.84 165.11 518.82 173.08 526.05 181.73 C 518.07 181.06 509.98 182.82 502.95 186.64 C 503.25 187.80 503.55 188.96 503.85 190.12 C 498.45 183.87 492.87 177.76 487.46 171.51 C 485.63 169.34 483.78 167.17 481.81 165.13 Z" />
</g>
<g id="#cac9f5ff">
<path fill="#cac9f5" opacity="1.00" d=" M 209.73 160.92 C 219.36 165.96 229.93 169.54 240.95 169.06 C 241.09 170.42 241.27 171.79 241.50 173.14 C 231.01 175.88 220.85 170.79 211.00 167.86 C 210.93 168.71 210.78 170.43 210.70 171.29 C 210.04 167.87 209.70 164.39 209.73 160.92 Z" />
</g>
<g id="#b2aff4ff">
<path fill="#b2aff4" opacity="1.00" d=" M 211.00 167.86 C 220.85 170.79 231.01 175.88 241.50 173.14 C 242.16 176.17 243.16 179.12 244.44 181.94 C 234.04 184.52 223.78 180.40 213.51 179.24 C 212.25 176.72 211.18 174.07 210.70 171.29 C 210.78 170.43 210.93 168.71 211.00 167.86 Z" />
</g>
<g id="#aba5f5ff">
<path fill="#aba5f5" opacity="1.00" d=" M 36.99 169.75 C 39.43 180.82 46.76 189.96 56.15 196.05 C 56.31 197.33 56.47 198.61 56.64 199.90 C 50.91 201.56 45.09 202.85 39.26 204.11 C 39.12 204.89 38.83 206.45 38.68 207.23 C 34.87 203.04 31.43 198.54 27.94 194.08 C 26.52 190.79 25.01 187.52 23.84 184.13 C 23.85 181.21 24.05 178.30 24.24 175.39 C 28.48 174.58 32.68 173.62 36.87 172.62 C 36.90 171.90 36.96 170.47 36.99 169.75 Z" />
</g>
<g id="#a49cf6ff">
<path fill="#a49cf6" opacity="1.00" d=" M 482.87 171.36 C 484.40 171.41 485.93 171.46 487.46 171.51 C 492.87 177.76 498.45 183.87 503.85 190.12 C 507.94 195.06 511.86 200.14 515.64 205.32 C 517.14 207.57 518.44 209.94 519.87 212.23 C 518.48 210.99 517.02 209.84 515.57 208.66 C 512.99 231.97 510.60 255.33 506.33 278.41 C 505.22 283.32 503.97 288.33 504.77 293.40 C 491.65 307.72 477.60 321.17 463.32 334.33 C 461.56 334.55 459.81 334.77 458.06 334.99 C 473.21 281.82 482.04 226.66 482.87 171.36 Z" />
</g>
<g id="#9f96f6ff">
<path fill="#9f96f6" opacity="1.00" d=" M 213.51 179.24 C 223.78 180.40 234.04 184.52 244.44 181.94 C 245.73 183.76 247.16 185.47 248.64 187.15 C 239.22 191.85 228.51 187.05 218.55 187.30 C 216.63 184.77 214.95 182.06 213.51 179.24 Z" />
</g>
<g id="#9389e9ff">
<path fill="#9389e9" opacity="1.00" d=" M 27.94 194.08 C 31.43 198.54 34.87 203.04 38.68 207.23 C 44.50 213.43 50.93 218.99 57.51 224.35 C 57.92 224.70 58.73 225.40 59.14 225.75 C 60.74 227.70 62.21 229.75 63.71 231.78 C 52.75 233.58 41.80 235.56 30.97 238.04 C 22.08 227.09 15.63 214.09 12.90 200.22 C 18.28 202.91 24.17 200.96 29.66 199.80 C 29.11 197.89 28.57 195.97 27.94 194.08 Z" />
</g>
<g id="#b4b1f4ff">
<path fill="#b4b1f4" opacity="1.00" d=" M 56.15 196.05 C 63.62 201.61 71.47 206.63 79.26 211.73 C 80.19 213.05 81.04 214.43 81.91 215.80 C 74.03 217.54 66.15 219.24 58.31 221.14 C 58.11 221.94 57.71 223.55 57.51 224.35 C 50.93 218.99 44.50 213.43 38.68 207.23 C 38.83 206.45 39.12 204.89 39.26 204.11 C 45.09 202.85 50.91 201.56 56.64 199.90 C 56.47 198.61 56.31 197.33 56.15 196.05 Z" />
</g>
<g id="#8781aeff">
<path fill="#8781ae" opacity="1.00" d=" M 264.54 198.99 C 266.81 200.05 269.14 200.97 271.50 201.84 C 262.56 206.44 252.24 205.10 242.79 207.79 C 240.65 206.53 238.58 205.16 236.52 203.77 C 245.58 200.48 255.80 203.66 264.54 198.99 Z" />
</g>
<g id="#9a92d4ff">
<path fill="#9a92d4" opacity="1.00" d=" M 542.09 201.91 C 543.37 200.94 544.65 199.98 545.93 199.01 C 554.78 211.05 563.23 223.65 568.38 237.77 C 565.27 236.78 562.17 235.47 559.86 233.09 C 557.02 226.44 553.74 219.97 550.00 213.77 C 547.52 209.71 544.82 205.80 542.09 201.91 Z" />
</g>
<g id="#f3f3fcff">
<path fill="#f3f3fc" opacity="1.00" d=" M 515.64 205.32 C 523.92 202.84 532.39 199.81 541.18 200.63 C 541.41 200.95 541.87 201.59 542.09 201.91 C 544.82 205.80 547.52 209.71 550.00 213.77 C 541.37 214.79 532.50 215.91 524.63 219.83 C 523.14 217.24 521.53 214.72 519.87 212.23 C 518.44 209.94 517.14 207.57 515.64 205.32 Z" />
</g>
<g id="#66608bff">
<path fill="#66608b" opacity="1.00" d=" M 271.50 201.84 C 273.83 202.63 276.18 203.34 278.57 203.95 C 269.85 209.39 259.08 207.86 249.78 211.61 C 247.40 210.41 245.07 209.14 242.79 207.79 C 252.24 205.10 262.56 206.44 271.50 201.84 Z" />
<path fill="#66608b" opacity="1.00" d=" M 326.86 507.83 C 336.35 506.32 345.64 503.42 355.31 503.22 C 327.31 521.86 298.45 539.34 268.30 554.30 C 264.65 554.31 260.98 554.50 257.39 555.22 C 194.83 567.46 132.10 578.85 69.61 591.36 C 52.30 584.18 36.67 572.62 24.93 557.99 C 26.62 559.07 28.38 560.06 30.13 561.07 C 43.53 558.65 56.84 555.69 70.37 554.07 C 96.95 560.08 124.37 555.59 150.76 550.76 C 179.32 545.59 206.70 535.66 233.58 524.96 C 239.07 525.68 244.29 523.58 249.58 522.53 C 275.36 517.77 301.10 512.75 326.86 507.83 Z" />
</g>
<g id="#9c93f7ff">
<path fill="#9c93f7" opacity="1.00" d=" M 506.33 278.41 C 510.60 255.33 512.99 231.97 515.57 208.66 C 517.02 209.84 518.48 210.99 519.87 212.23 C 521.53 214.72 523.14 217.24 524.63 219.83 C 533.18 233.98 536.39 253.39 526.90 267.85 C 520.21 276.93 512.52 285.22 504.77 293.40 C 503.97 288.33 505.22 283.32 506.33 278.41 Z" />
</g>
<g id="#e3e2f9ff">
<path fill="#e3e2f9" opacity="1.00" d=" M 302.74 223.58 C 312.62 220.38 322.18 216.05 331.05 210.63 C 331.90 211.20 332.76 211.78 333.63 212.36 C 327.38 262.68 312.68 312.11 289.00 357.01 C 254.62 424.37 199.40 482.11 130.64 514.59 C 121.16 519.12 111.14 522.35 101.72 527.00 C 85.41 527.83 68.51 523.56 55.52 513.40 C 55.39 511.70 55.26 510.02 55.14 508.34 C 110.68 498.17 162.14 469.70 202.27 430.27 C 258.18 375.96 292.93 302.34 306.25 226.03 C 305.08 225.21 303.91 224.40 302.74 223.58 Z" />
</g>
<g id="#bbbaf3ff">
<path fill="#bbbaf3" opacity="1.00" d=" M 79.26 211.73 C 87.88 216.47 96.39 221.40 105.14 225.89 C 104.97 226.54 104.63 227.85 104.46 228.51 C 95.54 230.63 86.58 232.62 77.61 234.50 C 77.35 235.21 76.85 236.62 76.59 237.32 C 70.68 233.61 64.96 229.60 59.14 225.75 C 58.73 225.40 57.92 224.70 57.51 224.35 C 57.71 223.55 58.11 221.94 58.31 221.14 C 66.15 219.24 74.03 217.54 81.91 215.80 C 81.04 214.43 80.19 213.05 79.26 211.73 Z" />
</g>
<g id="#f6f6fdff">
<path fill="#f6f6fd" opacity="1.00" d=" M 266.57 218.70 C 273.90 221.22 281.46 223.10 289.16 224.04 C 288.41 235.70 284.92 246.91 282.17 258.20 C 263.76 326.78 225.46 391.10 169.46 435.46 C 132.84 465.07 88.25 484.70 41.62 491.42 C 43.21 496.51 45.41 501.39 48.03 506.03 C 39.24 495.91 32.63 482.15 34.87 468.48 C 42.54 468.26 48.92 463.44 56.37 462.28 C 109.95 451.08 158.23 419.97 193.80 378.79 C 230.75 336.52 254.96 283.93 266.21 229.11 C 266.86 225.68 266.78 222.17 266.57 218.70 Z" />
</g>
<g id="#edecfbff">
<path fill="#edecfb" opacity="1.00" d=" M 289.16 224.04 C 293.68 224.44 298.26 224.37 302.74 223.58 C 303.91 224.40 305.08 225.21 306.25 226.03 C 292.93 302.34 258.18 375.96 202.27 430.27 C 162.14 469.70 110.68 498.17 55.14 508.34 C 55.26 510.02 55.39 511.70 55.52 513.40 C 52.75 511.23 50.26 508.73 48.03 506.03 C 45.41 501.39 43.21 496.51 41.62 491.42 C 88.25 484.70 132.84 465.07 169.46 435.46 C 225.46 391.10 263.76 326.78 282.17 258.20 C 284.92 246.91 288.41 235.70 289.16 224.04 Z" />
<path fill="#edecfb" opacity="1.00" d=" M 182.99 262.91 C 187.75 264.79 194.20 267.67 193.76 273.80 C 191.91 280.94 185.70 286.96 178.43 288.48 C 171.68 290.15 164.82 291.40 158.06 293.08 C 161.79 289.85 165.38 286.47 169.10 283.23 C 166.37 281.88 163.63 280.54 160.90 279.19 C 159.78 278.07 158.72 276.91 157.65 275.75 C 167.74 272.60 178.30 271.32 188.39 268.15 C 186.62 266.37 184.87 264.57 182.99 262.91 Z" />
</g>
<g id="#968ce2ff">
<path fill="#968ce2" opacity="1.00" d=" M 59.14 225.75 C 64.96 229.60 70.68 233.61 76.59 237.32 C 84.13 242.00 91.70 246.62 99.57 250.71 C 99.40 251.61 99.24 252.52 99.07 253.43 C 85.41 256.75 71.31 258.06 57.80 262.04 C 47.91 255.21 38.53 247.45 30.97 238.04 C 41.80 235.56 52.75 233.58 63.71 231.78 C 62.21 229.75 60.74 227.70 59.14 225.75 Z" />
</g>
<g id="#c7c6f4ff">
<path fill="#c7c6f4" opacity="1.00" d=" M 105.14 225.89 C 113.80 230.23 122.45 234.59 131.22 238.72 C 131.88 239.94 132.54 241.16 133.21 242.39 C 123.27 245.38 112.94 246.73 103.03 249.79 C 103.58 250.97 104.13 252.15 104.68 253.33 C 102.98 252.46 101.27 251.59 99.57 250.71 C 91.70 246.62 84.13 242.00 76.59 237.32 C 76.85 236.62 77.35 235.21 77.61 234.50 C 86.58 232.62 95.54 230.63 104.46 228.51 C 104.63 227.85 104.97 226.54 105.14 225.89 Z" />
</g>
<g id="#9d97c8ff">
<path fill="#9d97c8" opacity="1.00" d=" M 559.86 233.09 C 562.17 235.47 565.27 236.78 568.38 237.77 C 570.54 243.55 571.82 249.59 573.00 255.63 L 573.00 288.36 C 572.51 290.74 571.94 293.11 571.41 295.50 C 560.81 298.99 549.62 299.99 538.82 302.73 C 547.82 290.14 556.48 276.90 560.88 261.92 C 563.87 252.52 563.32 242.27 559.86 233.09 Z" />
<path fill="#9d97c8" opacity="1.00" d=" M 107.79 333.78 C 114.57 328.26 120.63 321.80 128.08 317.15 L 128.78 316.71 C 118.18 328.45 105.31 337.92 93.95 348.93 C 69.55 371.52 44.46 394.10 26.17 422.15 C 26.05 420.71 25.93 419.27 25.82 417.84 C 48.82 385.95 78.47 359.69 107.79 333.78 Z" />
</g>
<g id="#d3d2f6ff">
<path fill="#d3d2f6" opacity="1.00" d=" M 131.22 238.72 C 140.03 242.78 148.76 247.02 157.51 251.19 C 147.96 257.20 135.87 256.66 125.31 260.17 C 125.15 260.95 124.83 262.51 124.67 263.29 C 117.87 260.26 111.29 256.76 104.68 253.33 C 104.13 252.15 103.58 250.97 103.03 249.79 C 112.94 246.73 123.27 245.38 133.21 242.39 C 132.54 241.16 131.88 239.94 131.22 238.72 Z" />
</g>
<g id="#9890daff">
<path fill="#9890da" opacity="1.00" d=" M 99.57 250.71 C 101.27 251.59 102.98 252.46 104.68 253.33 C 111.29 256.76 117.87 260.26 124.67 263.29 C 136.64 268.84 148.56 274.53 160.90 279.19 C 163.63 280.54 166.37 281.88 169.10 283.23 C 165.38 286.47 161.79 289.85 158.06 293.08 C 148.04 300.63 139.39 309.95 128.78 316.71 L 128.08 317.15 C 131.36 313.60 134.85 310.27 138.46 307.07 C 111.55 292.13 83.06 279.81 57.80 262.04 C 71.31 258.06 85.41 256.75 99.07 253.43 C 99.24 252.52 99.40 251.61 99.57 250.71 Z" />
</g>
<g id="#e0dff9ff">
<path fill="#e0dff9" opacity="1.00" d=" M 157.51 251.19 C 166.17 254.74 174.48 259.03 182.99 262.91 C 184.87 264.57 186.62 266.37 188.39 268.15 C 178.30 271.32 167.74 272.60 157.65 275.75 C 158.72 276.91 159.78 278.07 160.90 279.19 C 148.56 274.53 136.64 268.84 124.67 263.29 C 124.83 262.51 125.15 260.95 125.31 260.17 C 135.87 256.66 147.96 257.20 157.51 251.19 Z" />
</g>
<g id="#938dbbff">
<path fill="#938dbb" opacity="1.00" d=" M 538.82 302.73 C 549.62 299.99 560.81 298.99 571.41 295.50 C 567.92 316.32 553.27 332.49 540.08 348.01 C 522.57 351.10 504.73 353.36 487.74 358.73 C 505.79 341.04 523.75 323.09 538.82 302.73 Z" />
</g>
<g id="#8a84b1ff">
<path fill="#8a84b1" opacity="1.00" d=" M 487.74 358.73 C 504.73 353.36 522.57 351.10 540.08 348.01 C 531.34 358.21 522.08 367.97 512.39 377.28 C 502.45 377.52 492.93 380.75 483.14 382.15 C 473.32 384.24 463.21 385.30 453.72 388.73 C 465.06 378.73 476.51 368.85 487.74 358.73 Z" />
</g>
<g id="#837da9ff">
<path fill="#837da9" opacity="1.00" d=" M 483.14 382.15 C 492.93 380.75 502.45 377.52 512.39 377.28 C 502.22 387.79 491.48 397.76 480.45 407.36 C 458.43 409.85 436.88 415.56 414.99 419.00 C 427.99 409.02 440.82 398.82 453.72 388.73 C 463.21 385.30 473.32 384.24 483.14 382.15 Z" />
</g>
<g id="#7b75a1ff">
<path fill="#7b75a1" opacity="1.00" d=" M 414.99 419.00 C 436.88 415.56 458.43 409.85 480.45 407.36 C 465.28 421.30 449.31 434.34 433.09 447.03 C 417.67 448.93 402.54 452.62 387.25 455.29 C 375.11 457.76 362.79 459.44 350.86 462.86 C 372.59 448.76 394.02 434.20 414.99 419.00 Z" />
</g>
<g id="#8d87b3ff">
<path fill="#8d87b3" opacity="1.00" d=" M 3.46 459.80 C 8.36 444.63 16.62 430.77 25.82 417.84 C 25.93 419.27 26.05 420.71 26.17 422.15 C 15.34 438.64 9.17 458.41 10.69 478.24 C 9.93 473.40 9.61 468.51 9.48 463.63 C 7.82 463.23 6.16 462.84 4.51 462.45 C 4.24 461.79 3.72 460.47 3.46 459.80 Z" />
</g>
<g id="#706a95ff">
<path fill="#706a95" opacity="1.00" d=" M 387.25 455.29 C 402.54 452.62 417.67 448.93 433.09 447.03 C 408.01 466.90 382.11 485.76 355.31 503.22 C 345.64 503.42 336.35 506.32 326.86 507.83 C 301.10 512.75 275.36 517.77 249.58 522.53 C 244.29 523.58 239.07 525.68 233.58 524.96 C 274.19 507.27 313.21 486.16 350.86 462.86 C 362.79 459.44 375.11 457.76 387.25 455.29 Z" />
</g>
<g id="#847eabff">
<path fill="#847eab" opacity="1.00" d=" M 0.00 473.58 C 0.93 468.93 2.08 464.33 3.46 459.80 C 3.72 460.47 4.24 461.79 4.51 462.45 C 6.16 462.84 7.82 463.23 9.48 463.63 C 9.61 468.51 9.93 473.40 10.69 478.24 C 11.77 484.87 13.22 491.44 15.11 497.88 C 13.74 496.25 12.28 494.69 10.86 493.11 C 7.83 493.56 4.80 494.00 1.77 494.42 C 1.28 491.95 0.62 489.53 0.00 487.10 L 0.00 473.58 Z" />
</g>
<g id="#7d77a3ff">
<path fill="#7d77a3" opacity="1.00" d=" M 0.00 487.10 C 0.62 489.53 1.28 491.95 1.77 494.42 C 4.80 494.00 7.83 493.56 10.86 493.11 C 12.28 494.69 13.74 496.25 15.11 497.88 C 17.68 503.95 20.02 510.13 23.01 516.01 C 17.51 510.22 9.51 513.99 2.78 514.34 C 1.71 509.00 0.82 503.63 0.00 498.26 L 0.00 487.10 Z" />
</g>
<g id="#77719dff">
<path fill="#77719d" opacity="1.00" d=" M 2.78 514.34 C 9.51 513.99 17.51 510.22 23.01 516.01 C 26.57 521.92 30.33 527.76 34.97 532.88 C 26.74 532.98 18.73 535.00 10.62 536.14 C 7.01 529.28 4.30 521.95 2.78 514.34 Z" />
</g>
<g id="#6f6995ff">
<path fill="#6f6995" opacity="1.00" d=" M 10.62 536.14 C 18.73 535.00 26.74 532.98 34.97 532.88 C 44.23 543.44 56.97 550.31 70.37 554.07 C 56.84 555.69 43.53 558.65 30.13 561.07 C 28.38 560.06 26.62 559.07 24.93 557.99 C 19.07 551.49 14.63 543.88 10.62 536.14 Z" />
</g>
<g id="#5e5883ff">
<path fill="#5e5883" opacity="1.00" d=" M 257.39 555.22 C 260.98 554.50 264.65 554.31 268.30 554.30 C 226.90 575.83 182.74 593.27 136.33 600.00 L 102.67 600.00 C 91.50 597.77 80.10 596.04 69.61 591.36 C 132.10 578.85 194.83 567.46 257.39 555.22 Z" />
</g>
</svg>
