<?xml version="1.0" encoding="UTF-8" ?>
<!DOCTYPE svg PUBLIC "-//W3C//DTD SVG 1.1//EN" "http://www.w3.org/Graphics/SVG/1.1/DTD/svg11.dtd">
<svg width="219pt" height="292pt" viewBox="0 0 219 292" version="1.1" xmlns="http://www.w3.org/2000/svg">
<g id="#59d7f7ff">
<path fill="#59d7f7" opacity="1.00" d=" M 98.12 24.83 C 101.83 19.18 110.99 20.56 113.96 26.31 C 108.78 27.31 103.50 27.47 98.24 27.33 C 98.21 26.71 98.15 25.45 98.12 24.83 Z" />
</g>
<g id="#46c2ebff">
<path fill="#46c2eb" opacity="1.00" d=" M 96.29 34.89 C 96.59 31.58 95.03 27.23 98.12 24.83 C 98.15 25.45 98.21 26.71 98.24 27.33 C 103.50 27.47 108.78 27.31 113.96 26.31 C 114.72 28.83 114.97 31.51 114.03 34.02 C 113.97 33.43 113.84 32.25 113.77 31.66 C 108.47 32.47 103.08 32.06 97.77 32.64 C 97.61 32.87 97.30 33.32 97.14 33.55 L 96.29 34.89 Z" />
</g>
<g id="#32a8deff">
<path fill="#32a8de" opacity="1.00" d=" M 97.77 32.64 C 103.08 32.06 108.47 32.47 113.77 31.66 C 113.84 32.25 113.97 33.43 114.03 34.02 C 112.56 37.98 108.10 40.33 103.98 39.64 C 101.38 39.50 99.44 37.63 97.52 36.10 C 97.43 35.46 97.23 34.19 97.14 33.55 C 97.30 33.32 97.61 32.87 97.77 32.64 Z" />
</g>
<g id="#5adaf8ff">
<path fill="#5adaf8" opacity="1.00" d=" M 129.02 36.17 C 131.57 34.85 134.52 35.50 137.25 35.55 C 139.39 36.84 141.38 38.39 142.93 40.37 L 141.83 40.70 C 136.33 41.98 130.65 41.45 125.07 41.27 L 124.07 40.20 C 125.60 38.71 127.29 37.41 129.02 36.17 Z" />
</g>
<g id="#44bfeaff">
<path fill="#44bfea" opacity="1.00" d=" M 125.07 41.27 C 130.65 41.45 136.33 41.98 141.83 40.70 L 143.11 40.46 C 143.64 42.64 144.26 44.81 144.37 47.06 C 143.74 48.16 143.34 49.34 143.16 50.59 C 143.07 50.59 142.89 50.58 142.81 50.58 C 136.67 50.39 130.48 50.06 124.39 51.05 C 122.85 47.99 123.19 44.51 123.52 41.21 C 123.91 41.23 124.68 41.25 125.07 41.27 Z" />
</g>
<g id="#2ea5dbff">
<path fill="#2ea5db" opacity="1.00" d=" M 124.39 51.05 C 130.48 50.06 136.67 50.39 142.81 50.58 C 141.74 52.50 140.25 54.20 138.25 55.18 C 134.44 56.03 130.49 55.58 126.96 53.91 C 126.05 53.00 125.23 52.02 124.39 51.05 Z" />
</g>
<g id="#5adaf7ff">
<path fill="#5adaf7" opacity="1.00" d=" M 101.83 58.34 C 106.64 52.14 117.14 52.52 121.19 59.36 C 114.90 60.31 107.50 62.14 101.83 58.34 Z" />
</g>
<g id="#134f6e84">
<path fill="#134f6e" opacity="0.52" d=" M 126.96 53.91 C 130.49 55.58 134.44 56.03 138.25 55.18 C 134.87 57.72 129.75 57.00 126.96 53.91 Z" />
</g>
<g id="#46c2ecff">
<path fill="#46c2ec" opacity="1.00" d=" M 99.64 68.26 C 99.32 64.78 99.81 61.27 101.83 58.34 C 107.50 62.14 114.90 60.31 121.19 59.36 L 121.39 59.32 C 121.51 59.68 121.75 60.39 121.87 60.74 C 122.44 63.06 122.69 65.46 122.45 67.84 C 114.85 67.67 107.23 67.55 99.64 68.26 Z" />
</g>
<g id="#1a4c5e67">
<path fill="#1a4c5e" opacity="0.40" d=" M 121.87 60.74 C 124.80 63.95 123.65 68.95 121.12 72.04 C 121.62 70.66 122.05 69.26 122.45 67.84 C 122.69 65.46 122.44 63.06 121.87 60.74 Z" />
</g>
<g id="#33aadeff">
<path fill="#33aade" opacity="1.00" d=" M 99.64 68.26 C 107.23 67.55 114.85 67.67 122.45 67.84 C 122.05 69.26 121.62 70.66 121.12 72.04 C 120.31 73.14 119.31 74.10 118.21 74.91 C 114.27 76.82 109.84 77.02 105.67 75.78 C 102.47 74.45 100.89 71.26 99.64 68.26 Z" />
</g>
<g id="#5ad8f7ff">
<path fill="#5ad8f7" opacity="1.00" d=" M 126.03 80.16 C 129.65 73.63 138.82 71.87 144.82 76.13 C 145.89 77.20 146.94 78.27 147.99 79.36 C 146.43 80.06 144.84 80.85 143.09 80.84 C 137.40 81.15 131.64 81.34 126.03 80.16 Z" />
</g>
<g id="#13517187">
<path fill="#135171" opacity="0.53" d=" M 105.67 75.78 C 109.84 77.02 114.27 76.82 118.21 74.91 C 115.13 78.27 109.12 78.87 105.67 75.78 Z" />
</g>
<g id="#4bc8eeff">
<path fill="#4bc8ee" opacity="1.00" d=" M 147.99 79.36 C 148.21 79.85 148.42 80.34 148.62 80.85 C 149.05 82.53 149.40 84.23 149.67 85.95 C 141.62 85.66 133.56 86.16 125.52 85.65 C 125.29 85.13 124.84 84.07 124.61 83.54 C 124.37 82.33 125.54 81.27 125.88 80.13 L 126.03 80.16 C 131.64 81.34 137.40 81.15 143.09 80.84 C 144.84 80.85 146.43 80.06 147.99 79.36 Z" />
</g>
<g id="#57d7f6ff">
<path fill="#57d7f6" opacity="1.00" d=" M 90.83 81.32 C 97.02 79.51 104.68 82.38 107.16 88.55 C 104.25 89.78 101.07 89.97 97.95 89.95 C 92.62 89.89 86.97 91.05 82.00 88.50 C 84.12 85.32 86.95 82.21 90.83 81.32 Z" />
</g>
<g id="#1c4f6069">
<path fill="#1c4f60" opacity="0.41" d=" M 148.62 80.85 C 151.22 83.67 151.35 88.34 149.13 91.43 L 149.31 90.33 C 149.47 88.87 149.60 87.41 149.67 85.95 C 149.40 84.23 149.05 82.53 148.62 80.85 Z" />
</g>
<g id="#41bce7ff">
<path fill="#41bce7" opacity="1.00" d=" M 124.61 83.54 C 124.84 84.07 125.29 85.13 125.52 85.65 C 133.56 86.16 141.62 85.66 149.67 85.95 C 149.60 87.41 149.47 88.87 149.31 90.33 C 141.30 90.17 133.22 89.21 125.26 90.50 L 124.52 90.60 C 124.41 88.25 124.35 85.89 124.61 83.54 Z" />
</g>
<g id="#47c3ebff">
<path fill="#47c3eb" opacity="1.00" d=" M 80.62 96.37 C 80.63 93.68 81.07 91.03 82.00 88.50 C 86.97 91.05 92.62 89.89 97.95 89.95 C 101.07 89.97 104.25 89.78 107.16 88.55 C 107.30 88.51 107.57 88.41 107.70 88.37 C 107.76 88.69 107.86 89.35 107.92 89.67 C 108.26 91.87 108.52 94.08 108.54 96.31 C 99.26 97.10 89.91 96.95 80.62 96.37 Z" />
</g>
<g id="#1844535b">
<path fill="#184453" opacity="0.36" d=" M 107.92 89.67 C 109.89 92.42 110.01 96.42 108.11 99.24 C 108.22 98.51 108.43 97.04 108.54 96.31 C 108.52 94.08 108.26 91.87 107.92 89.67 Z" />
</g>
<g id="#34acdfff">
<path fill="#34acdf" opacity="1.00" d=" M 125.26 90.50 C 133.22 89.21 141.30 90.17 149.31 90.33 L 149.13 91.43 C 148.43 92.87 147.52 94.20 146.69 95.57 L 146.21 95.53 C 139.73 94.76 133.04 95.84 126.73 93.81 C 126.49 93.75 126.00 93.61 125.75 93.54 C 125.63 92.78 125.38 91.26 125.26 90.50 Z" />
</g>
<g id="#279dd7ff">
<path fill="#279dd7" opacity="1.00" d=" M 126.73 93.81 C 133.04 95.84 139.73 94.76 146.21 95.53 C 144.80 97.17 142.87 98.19 140.91 99.04 C 135.73 100.58 129.49 98.62 126.73 93.81 Z" />
</g>
<g id="#38b1e1ff">
<path fill="#38b1e1" opacity="1.00" d=" M 80.62 96.37 C 89.91 96.95 99.26 97.10 108.54 96.31 C 108.43 97.04 108.22 98.51 108.11 99.24 C 107.55 100.70 106.81 102.09 106.13 103.50 L 105.04 103.40 C 97.86 102.61 90.60 102.59 83.42 103.32 C 82.08 101.18 81.15 98.83 80.62 96.37 Z" />
</g>
<g id="#2aa0d8ff">
<path fill="#2aa0d8" opacity="1.00" d=" M 83.42 103.32 C 90.60 102.59 97.86 102.61 105.04 103.40 L 105.91 103.80 C 100.10 110.34 88.81 110.43 83.42 103.32 Z" />
</g>
<g id="#43587aff">
<path fill="#43587a" opacity="1.00" d=" M 62.41 109.39 C 64.78 107.26 67.68 105.29 71.01 105.48 C 76.78 105.03 80.68 109.96 85.19 112.68 C 93.83 117.87 103.86 121.02 114.00 120.79 C 123.80 120.92 133.43 117.73 141.82 112.81 C 146.39 110.20 150.18 105.05 155.96 105.53 C 156.76 105.55 158.38 105.59 159.18 105.61 C 167.85 110.50 174.24 118.65 179.60 126.83 C 179.66 128.01 179.69 129.19 179.72 130.37 C 176.47 130.19 173.22 130.00 169.97 129.93 C 136.30 130.00 102.63 129.99 68.96 129.93 C 61.36 129.76 53.72 130.49 46.17 129.35 C 50.15 121.66 56.16 115.27 62.41 109.39 Z" />
</g>
<g id="#405374ff">
<path fill="#405374" opacity="1.00" d=" M 179.60 126.83 C 183.50 132.91 186.57 139.51 188.69 146.41 C 181.23 149.68 172.95 146.90 165.16 148.50 C 162.52 142.51 159.16 136.85 154.94 131.85 C 148.16 135.25 141.37 138.77 134.03 140.83 C 115.01 145.89 94.01 143.76 76.79 134.04 C 75.33 133.31 73.90 132.18 72.19 132.25 C 67.81 136.76 64.77 142.47 62.20 148.16 C 54.34 147.84 46.47 148.18 38.61 147.86 C 38.82 146.88 39.02 145.90 39.19 144.91 C 40.60 139.40 43.21 134.30 45.90 129.32 L 46.17 129.35 C 53.72 130.49 61.36 129.76 68.96 129.93 C 102.63 129.99 136.30 130.00 169.97 129.93 C 173.22 130.00 176.47 130.19 179.72 130.37 C 179.69 129.19 179.66 128.01 179.60 126.83 Z" />
</g>
<g id="#212b3d99">
<path fill="#212b3d" opacity="0.60" d=" M 39.15 143.79 L 39.19 144.91 C 39.02 145.90 38.82 146.88 38.61 147.86 C 37.07 153.50 35.81 159.22 35.24 165.05 C 35.01 170.12 34.98 175.23 35.55 180.28 C 36.17 184.95 37.49 189.49 38.19 194.15 L 37.96 195.28 C 35.30 187.47 34.71 179.15 34.57 170.96 C 34.76 161.77 35.60 152.37 39.15 143.79 Z" />
</g>
<g id="#3b4c6bff">
<path fill="#3b4c6b" opacity="1.00" d=" M 165.16 148.50 C 172.95 146.90 181.23 149.68 188.69 146.41 C 189.06 147.84 189.46 149.27 189.73 150.73 C 190.34 155.48 191.33 160.18 191.65 164.97 C 184.70 164.77 177.74 165.43 170.80 164.76 C 169.87 162.40 168.88 160.07 168.01 157.70 C 167.18 154.60 166.35 151.48 165.16 148.50 Z" />
<path fill="#3b4c6b" opacity="1.00" d=" M 38.61 147.86 C 46.47 148.18 54.34 147.84 62.20 148.16 C 61.73 149.38 61.28 150.60 60.86 151.84 C 59.13 156.08 57.92 160.54 57.49 165.12 C 50.07 164.93 42.65 164.91 35.24 165.05 C 35.81 159.22 37.07 153.50 38.61 147.86 Z" />
</g>
<g id="#1e27388e">
<path fill="#1e2738" opacity="0.56" d=" M 189.73 150.73 C 191.86 154.11 191.69 158.32 192.33 162.14 C 193.55 170.39 192.78 178.74 191.41 186.91 C 190.73 190.44 189.84 193.97 188.23 197.21 L 188.41 196.41 C 189.37 191.62 190.57 186.87 191.21 182.02 C 191.86 176.36 191.96 170.65 191.65 164.97 C 191.33 160.18 190.34 155.48 189.73 150.73 Z" />
</g>
<g id="#1c233280">
<path fill="#1c2332" opacity="0.50" d=" M 57.49 165.12 C 57.92 160.54 59.13 156.08 60.86 151.84 C 59.44 158.46 58.10 165.18 58.22 171.99 C 58.26 178.18 59.50 184.26 60.72 190.30 C 59.33 186.83 58.21 183.24 57.78 179.52 C 57.10 174.75 56.97 169.91 57.49 165.12 Z" />
</g>
<g id="#374764ff">
<path fill="#374764" opacity="1.00" d=" M 168.01 157.70 C 168.88 160.07 169.87 162.40 170.80 164.76 C 177.74 165.43 184.70 164.77 191.65 164.97 C 191.96 170.65 191.86 176.36 191.21 182.02 C 185.13 182.11 179.04 181.83 172.96 181.94 C 171.16 181.80 169.62 182.77 168.14 183.64 C 170.03 175.11 169.67 166.23 168.01 157.70 Z" />
<path fill="#374764" opacity="1.00" d=" M 35.24 165.05 C 42.65 164.91 50.07 164.93 57.49 165.12 C 56.97 169.91 57.10 174.75 57.78 179.52 C 55.60 180.30 53.28 180.33 51.00 180.16 C 45.85 179.82 40.69 180.11 35.55 180.28 C 34.98 175.23 35.01 170.12 35.24 165.05 Z" />
</g>
<g id="#34425eff">
<path fill="#34425e" opacity="1.00" d=" M 57.78 179.52 C 58.21 183.24 59.33 186.83 60.72 190.30 C 61.40 192.29 62.14 194.25 62.96 196.19 C 55.01 197.69 46.90 196.65 38.88 197.21 C 38.70 196.45 38.36 194.92 38.19 194.15 C 37.49 189.49 36.17 184.95 35.55 180.28 C 40.69 180.11 45.85 179.82 51.00 180.16 C 53.28 180.33 55.60 180.30 57.78 179.52 Z" />
</g>
<g id="#34425dff">
<path fill="#34425d" opacity="1.00" d=" M 168.14 183.64 C 169.62 182.77 171.16 181.80 172.96 181.94 C 179.04 181.83 185.13 182.11 191.21 182.02 C 190.57 186.87 189.37 191.62 188.41 196.41 C 180.33 197.36 172.14 197.31 164.05 196.41 C 166.01 192.37 167.32 188.04 168.14 183.64 Z" />
</g>
<g id="#303c56ff">
<path fill="#303c56" opacity="1.00" d=" M 62.96 196.19 C 65.60 201.64 68.84 206.85 72.90 211.37 C 69.74 213.76 65.67 213.25 61.96 213.26 C 56.75 213.14 51.54 213.22 46.34 213.36 L 46.00 213.37 C 43.13 208.21 40.68 202.84 38.88 197.21 C 46.90 196.65 55.01 197.69 62.96 196.19 Z" />
<path fill="#303c56" opacity="1.00" d=" M 164.05 196.41 C 172.14 197.31 180.33 197.36 188.41 196.41 L 188.23 197.21 C 186.96 202.15 184.67 206.73 182.28 211.20 C 179.68 212.38 176.91 213.35 174.01 213.24 C 167.84 213.21 161.66 213.31 155.50 213.06 C 155.52 211.97 155.55 210.90 155.58 209.82 C 159.06 205.80 161.76 201.19 164.05 196.41 Z" />
</g>
<g id="#29334aff">
<path fill="#29334a" opacity="1.00" d=" M 111.99 229.71 C 128.58 230.45 145.07 222.56 155.58 209.82 C 155.55 210.90 155.52 211.97 155.50 213.06 C 161.66 213.31 167.84 213.21 174.01 213.24 C 176.91 213.35 179.68 212.38 182.28 211.20 C 175.49 223.53 165.55 234.24 153.39 241.40 C 135.64 252.53 113.18 255.59 93.05 249.90 C 73.62 244.27 56.17 231.12 46.34 213.36 C 51.54 213.22 56.75 213.14 61.96 213.26 C 65.67 213.25 69.74 213.76 72.90 211.37 C 82.78 222.36 97.14 229.48 111.99 229.71 Z" />
</g>
</svg>
