<?xml version="1.0" encoding="UTF-8" ?>
<!DOCTYPE svg PUBLIC "-//W3C//DTD SVG 1.1//EN" "http://www.w3.org/Graphics/SVG/1.1/DTD/svg11.dtd">
<svg width="88pt" height="88pt" viewBox="0 0 88 88" version="1.1" xmlns="http://www.w3.org/2000/svg">
<g id="#ffcc00ff">
<path fill="#ffcc00" opacity="1.00" d=" M 20.14 13.14 C 27.96 6.30 38.70 2.94 49.03 4.04 C 61.79 5.11 73.65 13.21 79.48 24.58 C 85.86 36.54 85.14 51.80 77.85 63.19 C 76.90 64.59 75.90 65.95 74.83 67.26 C 68.17 75.12 58.36 80.31 48.03 80.92 C 36.95 81.88 25.90 77.43 17.90 69.86 C 16.56 68.23 15.21 66.61 13.88 64.97 C 8.79 57.79 6.13 48.88 6.74 40.08 C 7.30 29.78 12.25 19.79 20.14 13.14 M 38.48 11.62 C 34.30 12.54 30.32 14.32 26.85 16.81 C 15.58 24.68 10.72 40.32 15.62 53.18 C 20.26 66.70 34.92 75.71 49.08 73.72 C 58.94 72.59 68.04 66.45 72.82 57.76 C 78.07 48.45 78.08 36.44 72.82 27.13 C 66.42 15.14 51.71 8.48 38.48 11.62 Z" />
</g>
<g id="#97141aff">
<path fill="#97141a" opacity="1.00" d=" M 38.48 11.62 C 51.71 8.48 66.42 15.14 72.82 27.13 C 78.08 36.44 78.07 48.45 72.82 57.76 C 68.04 66.45 58.94 72.59 49.08 73.72 C 34.92 75.71 20.26 66.70 15.62 53.18 C 10.72 40.32 15.58 24.68 26.85 16.81 C 30.32 14.32 34.30 12.54 38.48 11.62 M 44.32 19.50 C 44.09 22.44 42.09 27.07 46.08 28.30 C 46.26 25.42 47.65 21.09 44.32 19.50 M 44.37 28.90 C 39.61 35.59 41.26 44.33 40.87 52.03 C 40.61 53.68 41.30 56.50 39.01 56.81 C 35.88 55.52 33.45 52.98 30.28 51.78 C 28.09 50.98 25.72 51.18 23.44 51.29 C 23.60 55.19 27.01 57.29 29.98 59.06 C 34.22 61.54 37.82 65.64 42.99 66.04 C 47.11 66.74 50.03 63.15 53.38 61.43 C 58.53 58.47 64.81 55.22 65.45 48.56 C 59.91 47.64 56.78 53.54 51.72 54.54 C 50.38 54.25 48.27 53.73 48.49 51.93 C 48.60 45.31 49.42 38.58 47.77 32.07 C 47.48 30.33 45.65 29.76 44.37 28.90 M 65.51 49.61 C 68.55 49.44 72.26 47.27 71.45 43.72 C 68.68 44.78 65.77 46.24 65.51 49.61 M 18.42 46.37 C 19.22 48.78 21.70 53.21 24.57 50.31 C 22.71 48.73 20.74 47.22 18.42 46.37 Z" />
</g>
<g id="#f4fff5ff">
<path fill="#f4fff5" opacity="1.00" d=" M 44.32 19.50 C 47.65 21.09 46.26 25.42 46.08 28.30 C 42.09 27.07 44.09 22.44 44.32 19.50 Z" />
<path fill="#f4fff5" opacity="1.00" d=" M 44.37 28.90 C 45.65 29.76 47.48 30.33 47.77 32.07 C 49.42 38.58 48.60 45.31 48.49 51.93 C 48.27 53.73 50.38 54.25 51.72 54.54 C 56.78 53.54 59.91 47.64 65.45 48.56 C 64.81 55.22 58.53 58.47 53.38 61.43 C 50.03 63.15 47.11 66.74 42.99 66.04 C 37.82 65.64 34.22 61.54 29.98 59.06 C 27.01 57.29 23.60 55.19 23.44 51.29 C 25.72 51.18 28.09 50.98 30.28 51.78 C 33.45 52.98 35.88 55.52 39.01 56.81 C 41.30 56.50 40.61 53.68 40.87 52.03 C 41.26 44.33 39.61 35.59 44.37 28.90 Z" />
<path fill="#f4fff5" opacity="1.00" d=" M 18.42 46.37 C 20.74 47.22 22.71 48.73 24.57 50.31 C 21.70 53.21 19.22 48.78 18.42 46.37 Z" />
</g>
<g id="#f0f4ebff">
<path fill="#f0f4eb" opacity="1.00" d=" M 65.51 49.61 C 65.77 46.24 68.68 44.78 71.45 43.72 C 72.26 47.27 68.55 49.44 65.51 49.61 Z" />
</g>
<g id="#00000030">
</g>
<g id="#00000058">
</g>
</svg>
