<?xml version="1.0" encoding="UTF-8" ?>
<!DOCTYPE svg PUBLIC "-//W3C//DTD SVG 1.1//EN" "http://www.w3.org/Graphics/SVG/1.1/DTD/svg11.dtd">
<svg width="500pt" height="500pt" viewBox="0 0 500 500" version="1.1" xmlns="http://www.w3.org/2000/svg">
<g id="#f47421ff">
<path fill="#f47421" opacity="1.00" d=" M 238.23 25.33 C 269.75 23.74 301.64 28.65 331.08 40.11 C 362.25 52.10 390.63 71.24 413.53 95.55 C 451.10 135.00 473.45 188.53 474.83 243.01 C 476.34 287.59 464.16 332.54 440.18 370.15 C 420.49 401.37 392.96 427.60 360.84 445.77 C 322.05 467.93 276.50 477.88 232.00 474.22 C 173.99 469.95 118.33 441.69 80.34 397.70 C 60.96 375.52 45.99 349.49 36.68 321.55 C 16.44 261.91 22.83 193.82 54.20 139.17 C 77.31 98.24 113.58 64.89 156.36 45.40 C 182.04 33.56 210.00 26.81 238.23 25.33 M 318.47 88.57 C 311.69 90.42 305.64 94.76 301.71 100.58 C 293.73 111.80 295.09 128.39 304.76 138.19 C 314.21 148.47 331.04 150.53 342.67 142.78 C 354.76 135.36 359.93 118.83 354.16 105.86 C 348.76 92.25 332.51 84.33 318.47 88.57 M 192.18 133.02 C 199.13 145.49 206.07 157.95 213.05 170.40 C 229.75 162.64 248.90 160.32 266.97 163.91 C 286.50 167.66 304.55 178.42 317.28 193.70 C 328.75 207.30 335.81 224.49 337.40 242.20 C 351.66 242.03 365.93 241.80 380.19 241.58 C 378.29 209.87 364.12 179.25 341.51 156.99 C 330.37 161.01 317.59 160.49 307.08 154.89 C 295.34 148.94 286.99 137.18 284.84 124.24 C 254.25 115.72 220.61 118.85 192.18 133.02 M 123.65 217.25 C 133.79 225.61 139.83 238.74 139.10 251.92 C 138.68 263.82 132.75 275.16 123.65 282.75 C 131.53 313.51 151.17 341.01 177.62 358.57 C 184.91 346.30 192.25 334.06 199.55 321.80 C 187.00 312.87 176.74 300.72 170.30 286.71 C 161.26 267.26 159.81 244.45 166.20 223.98 C 171.84 205.57 183.85 189.30 199.55 178.20 C 192.25 165.94 184.91 153.70 177.62 141.43 C 151.16 158.98 131.52 186.49 123.65 217.25 M 90.50 220.68 C 78.85 223.12 69.28 233.13 67.41 244.90 C 65.09 257.25 71.56 270.51 82.65 276.37 C 94.38 283.01 110.35 280.31 119.23 270.17 C 127.73 261.07 129.47 246.53 123.38 235.67 C 117.32 224.11 103.22 217.66 90.50 220.68 M 320.78 301.82 C 308.38 318.85 289.66 331.15 269.07 335.65 C 250.39 339.84 230.40 337.64 213.04 329.60 C 206.07 342.05 199.12 354.52 192.18 366.98 C 220.62 381.12 254.25 384.29 284.85 375.75 C 286.95 363.04 295.04 351.45 306.48 345.43 C 317.09 339.51 330.17 338.90 341.53 343.01 C 364.11 320.72 378.29 290.13 380.19 258.42 C 365.95 258.16 351.71 258.05 337.47 257.74 C 335.89 273.56 330.26 289.01 320.78 301.82 M 318.41 353.58 C 311.17 355.62 304.74 360.43 300.86 366.88 C 293.78 378.08 295.50 393.79 304.79 403.22 C 314.26 413.52 331.15 415.52 342.76 407.72 C 355.03 400.15 360.07 383.17 353.84 370.14 C 348.18 356.91 332.21 349.42 318.41 353.58 Z" />
</g>
<g id="#ffffffff">
<path fill="#ffffff" opacity="1.00" d=" M 318.47 88.57 C 332.51 84.33 348.76 92.25 354.16 105.86 C 359.93 118.83 354.76 135.36 342.67 142.78 C 331.04 150.53 314.21 148.47 304.76 138.19 C 295.09 128.39 293.73 111.80 301.71 100.58 C 305.64 94.76 311.69 90.42 318.47 88.57 Z" />
<path fill="#ffffff" opacity="1.00" d=" M 192.18 133.02 C 220.61 118.85 254.25 115.72 284.84 124.24 C 286.99 137.18 295.34 148.94 307.08 154.89 C 317.59 160.49 330.37 161.01 341.51 156.99 C 364.12 179.25 378.29 209.87 380.19 241.58 C 365.93 241.80 351.66 242.03 337.40 242.20 C 335.81 224.49 328.75 207.30 317.28 193.70 C 304.55 178.42 286.50 167.66 266.97 163.91 C 248.90 160.32 229.75 162.64 213.05 170.40 C 206.07 157.95 199.13 145.49 192.18 133.02 Z" />
<path fill="#ffffff" opacity="1.00" d=" M 123.65 217.25 C 131.52 186.49 151.16 158.98 177.62 141.43 C 184.91 153.70 192.25 165.94 199.55 178.20 C 183.85 189.30 171.84 205.57 166.20 223.98 C 159.81 244.45 161.26 267.26 170.30 286.71 C 176.74 300.72 187.00 312.87 199.55 321.80 C 192.25 334.06 184.91 346.30 177.62 358.57 C 151.17 341.01 131.53 313.51 123.65 282.75 C 132.75 275.16 138.68 263.82 139.10 251.92 C 139.83 238.74 133.79 225.61 123.65 217.25 Z" />
<path fill="#ffffff" opacity="1.00" d=" M 90.50 220.68 C 103.22 217.66 117.32 224.11 123.38 235.67 C 129.47 246.53 127.73 261.07 119.23 270.17 C 110.35 280.31 94.38 283.01 82.65 276.37 C 71.56 270.51 65.09 257.25 67.41 244.90 C 69.28 233.13 78.85 223.12 90.50 220.68 Z" />
<path fill="#ffffff" opacity="1.00" d=" M 320.78 301.82 C 330.26 289.01 335.89 273.56 337.47 257.74 C 351.71 258.05 365.95 258.16 380.19 258.42 C 378.29 290.13 364.11 320.72 341.53 343.01 C 330.17 338.90 317.09 339.51 306.48 345.43 C 295.04 351.45 286.95 363.04 284.85 375.75 C 254.25 384.29 220.62 381.12 192.18 366.98 C 199.12 354.52 206.07 342.05 213.04 329.60 C 230.40 337.64 250.39 339.84 269.07 335.65 C 289.66 331.15 308.38 318.85 320.78 301.82 Z" />
<path fill="#ffffff" opacity="1.00" d=" M 318.41 353.58 C 332.21 349.42 348.18 356.91 353.84 370.14 C 360.07 383.17 355.03 400.15 342.76 407.72 C 331.15 415.52 314.26 413.52 304.79 403.22 C 295.50 393.79 293.78 378.08 300.86 366.88 C 304.74 360.43 311.17 355.62 318.41 353.58 Z" />
</g>
</svg>
