<?xml version="1.0" encoding="UTF-8" ?>
<!DOCTYPE svg PUBLIC "-//W3C//DTD SVG 1.1//EN" "http://www.w3.org/Graphics/SVG/1.1/DTD/svg11.dtd">
<svg width="670pt" height="600pt" viewBox="0 0 670 600" version="1.1" xmlns="http://www.w3.org/2000/svg">
<g id="#e5552bff">
<path fill="#e5552b" opacity="1.00" d=" M 246.46 26.50 C 259.23 25.85 272.09 26.20 284.73 28.25 C 302.08 30.98 318.92 36.64 334.63 44.47 C 345.54 49.84 355.86 56.30 366.05 62.93 C 367.65 64.01 369.30 65.06 370.65 66.46 C 371.00 69.12 369.83 71.67 369.18 74.20 C 350.68 138.34 332.03 202.44 313.54 266.57 C 312.99 269.58 309.79 270.91 307.06 271.13 C 305.03 270.70 303.27 269.53 301.51 268.48 C 285.25 258.17 267.96 249.29 249.57 243.44 C 231.95 237.92 213.42 235.49 194.98 236.09 C 160.62 237.02 127.40 247.38 95.56 259.60 C 92.71 261.13 90.04 258.76 88.09 256.88 C 86.36 255.66 87.19 253.43 87.53 251.75 C 106.20 187.08 125.02 122.45 143.66 57.77 C 144.53 54.30 147.41 51.84 150.62 50.53 C 166.99 43.87 183.81 38.27 200.95 33.88 C 203.98 33.07 207.25 33.47 210.18 32.22 C 214.87 30.26 219.96 29.79 224.91 28.91 C 232.05 27.72 239.25 26.99 246.46 26.50 Z" />
</g>
<g id="#86c34aff">
<path fill="#86c34a" opacity="1.00" d=" M 391.31 90.31 C 392.77 87.79 395.44 86.35 397.98 85.15 C 399.46 85.94 401.03 86.58 402.40 87.58 C 410.18 92.89 418.13 97.96 426.42 102.42 C 429.22 103.84 430.84 106.74 433.54 108.29 C 436.11 109.75 438.67 111.24 441.34 112.53 C 443.37 113.60 445.75 111.72 447.75 113.03 C 450.88 114.62 454.33 115.32 457.67 116.36 C 475.75 122.56 494.90 125.56 514.00 125.35 C 529.51 125.35 544.93 123.21 560.09 120.07 C 581.11 115.44 601.69 108.83 621.57 100.56 C 623.22 99.98 624.93 99.15 626.75 99.32 C 629.41 100.39 631.72 102.30 633.53 104.52 C 634.18 106.62 633.31 108.81 632.85 110.87 C 630.43 118.85 628.04 126.83 625.85 134.88 C 609.86 189.86 593.82 244.82 577.81 299.80 C 576.93 302.50 576.56 305.51 574.84 307.85 C 572.63 309.52 569.94 310.36 567.44 311.47 C 556.14 316.26 544.62 320.53 532.79 323.78 C 520.70 327.40 508.26 329.57 495.86 331.80 C 480.04 334.42 463.95 335.54 447.92 334.71 C 413.20 333.20 379.32 321.47 350.04 302.95 C 344.36 299.34 338.03 296.47 333.24 291.66 C 333.74 287.17 335.44 282.93 336.61 278.59 C 353.98 218.61 371.28 158.62 388.63 98.64 C 389.46 95.85 390.04 92.95 391.31 90.31 Z" />
<path fill="#86c34a" opacity="1.00" d=" M 556.22 338.27 L 556.76 338.25 L 556.82 338.76 L 556.21 338.79 L 556.22 338.27 Z" />
<path fill="#86c34a" opacity="1.00" d=" M 540.21 343.64 C 540.35 343.60 540.65 343.51 540.79 343.47 C 540.65 343.51 540.35 343.60 540.21 343.64 Z" />
<path fill="#86c34a" opacity="1.00" d=" M 530.22 346.59 C 530.36 346.55 530.66 346.46 530.80 346.42 C 530.66 346.46 530.36 346.55 530.22 346.59 Z" />
</g>
<g id="#3d82c4ff">
<path fill="#3d82c4" opacity="1.00" d=" M 162.24 265.17 C 167.01 263.71 172.02 263.60 176.94 263.08 C 180.52 262.71 184.16 262.49 187.74 263.06 C 192.10 263.77 196.56 263.18 200.93 263.87 C 204.10 264.59 207.20 262.97 210.39 263.43 C 224.28 264.93 238.00 268.08 251.10 272.95 C 266.20 278.60 280.41 286.38 293.93 295.11 C 296.76 297.04 300.08 298.49 302.29 301.19 C 303.11 305.40 301.70 309.61 300.59 313.64 C 283.00 374.03 265.31 434.39 247.71 494.77 C 246.60 498.28 246.06 502.03 244.30 505.29 C 242.94 506.83 240.97 507.75 239.01 508.25 C 236.72 507.73 234.78 506.35 232.82 505.15 C 222.35 498.30 211.33 492.31 200.02 486.99 C 174.47 475.42 145.95 470.47 118.00 472.93 C 89.77 475.21 62.36 483.19 35.85 492.83 C 32.90 493.85 30.06 495.30 26.95 495.82 C 24.24 496.06 22.53 493.55 20.67 492.03 C 23.42 489.19 26.76 487.08 30.02 484.91 C 32.28 483.55 32.80 480.80 33.55 478.49 C 37.05 465.54 40.81 452.66 44.83 439.87 C 48.60 427.50 51.81 414.97 55.64 402.62 C 59.16 392.20 61.89 381.55 64.98 371.00 C 68.66 357.78 72.76 344.67 76.41 331.44 C 78.83 322.65 81.86 314.03 84.19 305.22 C 85.85 298.59 88.89 292.16 88.50 285.19 C 93.39 282.72 98.80 281.63 103.90 279.70 C 106.50 278.72 108.97 277.40 111.67 276.66 C 114.55 275.98 117.61 276.29 120.44 275.29 C 128.82 272.63 137.31 270.34 145.94 268.60 C 151.33 267.27 156.93 266.85 162.24 265.17 Z" />
</g>
<g id="#2485c7ff">
<path fill="#2485c7" opacity="1.00" d=" M 78.35 288.96 C 81.72 287.66 85.06 286.29 88.50 285.19 C 88.89 292.16 85.85 298.59 84.19 305.22 C 81.86 314.03 78.83 322.65 76.41 331.44 C 72.76 344.67 68.66 357.78 64.98 371.00 C 61.89 381.55 59.16 392.20 55.64 402.62 C 51.81 414.97 48.60 427.50 44.83 439.87 C 40.81 452.66 37.05 465.54 33.55 478.49 C 32.80 480.80 32.28 483.55 30.02 484.91 C 26.76 487.08 23.42 489.19 20.67 492.03 C 19.38 490.47 20.77 488.09 21.00 486.29 C 26.41 469.40 30.81 452.20 36.23 435.32 C 39.97 427.64 41.57 419.21 44.30 411.17 C 49.24 396.81 53.09 382.11 57.71 367.64 C 62.40 351.97 66.83 336.22 71.63 320.57 C 74.36 312.14 76.76 303.61 79.24 295.11 C 80.06 293.00 79.17 290.89 78.35 288.96 Z" />
</g>
<g id="#127fc4ff">
<path fill="#127fc4" opacity="1.00" d=" M 74.92 296.89 C 75.83 294.18 75.99 290.90 78.35 288.96 C 79.17 290.89 80.06 293.00 79.24 295.11 C 76.76 303.61 74.36 312.14 71.63 320.57 C 66.83 336.22 62.40 351.97 57.71 367.64 C 53.09 382.11 49.24 396.81 44.30 411.17 C 41.57 419.21 39.97 427.64 36.23 435.32 C 36.27 430.47 38.16 425.96 39.41 421.36 C 51.20 379.86 63.15 338.40 74.92 296.89 Z" />
</g>
<g id="#ffce08ff">
<path fill="#ffce08" opacity="1.00" d=" M 325.61 322.59 C 327.11 321.44 328.84 320.07 330.85 320.30 C 332.51 320.75 333.94 321.75 335.38 322.66 C 349.20 332.11 363.92 340.27 379.42 346.61 C 406.92 357.75 437.17 361.15 466.61 358.58 C 488.17 356.88 509.41 352.40 530.22 346.59 C 530.36 346.55 530.66 346.46 530.80 346.42 C 533.92 345.44 537.05 344.51 540.21 343.64 C 540.35 343.60 540.65 343.51 540.79 343.47 C 545.95 341.98 550.89 339.68 556.21 338.79 L 556.82 338.76 C 559.64 339.11 561.88 341.28 563.75 343.29 C 565.25 344.57 564.57 346.64 564.24 348.29 C 546.63 409.98 528.91 471.64 511.31 533.33 C 510.47 536.09 509.94 539.00 508.57 541.56 C 506.27 543.51 503.25 544.27 500.54 545.48 C 466.12 559.42 429.33 568.79 392.00 568.39 C 356.60 568.34 321.45 558.62 290.58 541.43 C 283.80 537.62 277.18 533.54 270.61 529.37 C 269.02 528.29 267.33 527.25 266.20 525.67 C 265.94 522.10 267.44 518.73 268.35 515.36 C 286.05 454.05 303.76 392.75 321.44 331.43 C 322.39 328.34 322.83 324.68 325.61 322.59 Z" />
</g>
</svg>
